<?xml version="1.0" encoding="UTF-8"?>
<svg xmlns="http://www.w3.org/2000/svg" viewBox="0 0 1950 1950">
  <defs>
    <style>
      .cls-1 {
        mix-blend-mode: luminosity;
        opacity: .39;
      }

      .cls-2 {
        fill: #94969c;
      }

      .cls-3 {
        fill: #8c8c8c;
      }

      .cls-4 {
        isolation: isolate;
      }

      .cls-5 {
        fill: #333;
      }

      .cls-6 {
        fill: #e6e6e6;
      }

      .cls-7 {
        fill: red;
      }
    </style>
  </defs>
  <g class="cls-4">
    <g id="Layer_2" data-name="Layer 2">
      <g id="Drawing_Dark_copy" data-name="Drawing Dark copy">
        <g id="RBG_Dark" data-name="RBG Dark">
          <path class="cls-5" d="M975,1936c-129.74,0-255.59-25.41-374.06-75.51-114.43-48.4-217.21-117.69-305.47-205.96-88.26-88.26-157.55-191.04-205.96-305.47-50.11-118.47-75.51-244.32-75.51-374.06s25.41-255.59,75.51-374.06c48.4-114.43,117.69-217.21,205.96-305.47,88.26-88.26,191.04-157.55,305.47-205.96C719.41,39.41,845.26,14,975,14s255.59,25.41,374.06,75.51c114.43,48.4,217.21,117.69,305.47,205.96,88.26,88.26,157.55,191.04,205.96,305.47,50.11,118.47,75.51,244.32,75.51,374.06s-25.41,255.59-75.51,374.06c-48.4,114.43-117.69,217.21-205.96,305.47-88.26,88.26-191.04,157.55-305.47,205.96-118.47,50.11-244.32,75.51-374.06,75.51Z"/>
          <path class="cls-6" d="M975,28c64.27,0,128.49,6.47,190.88,19.24,60.79,12.44,120.58,31,177.72,55.17,56.11,23.73,110.23,53.11,160.85,87.31,50.15,33.88,97.31,72.79,140.17,115.65,42.86,42.86,81.77,90.02,115.65,140.17,34.2,50.62,63.58,104.74,87.31,160.85,24.17,57.14,42.73,116.93,55.17,177.72,12.77,62.39,19.24,126.61,19.24,190.88s-6.47,128.49-19.24,190.88c-12.44,60.79-31,120.58-55.17,177.72-23.73,56.11-53.11,110.23-87.31,160.85-33.88,50.15-72.79,97.31-115.65,140.17-42.86,42.86-90.02,81.77-140.17,115.65-50.62,34.2-104.74,63.58-160.85,87.31-57.14,24.17-116.93,42.73-177.72,55.17-62.39,12.77-126.61,19.24-190.88,19.24s-128.49-6.47-190.88-19.24c-60.79-12.44-120.58-31-177.72-55.17-56.11-23.73-110.23-53.11-160.85-87.31-50.15-33.88-97.31-72.79-140.17-115.65-42.86-42.86-81.77-90.02-115.65-140.17-34.2-50.62-63.58-104.74-87.31-160.85-24.17-57.14-42.73-116.93-55.17-177.72-12.77-62.39-19.24-126.61-19.24-190.88s6.47-128.49,19.24-190.88c12.44-60.79,31-120.58,55.17-177.72,23.73-56.11,53.11-110.23,87.31-160.85,33.88-50.15,72.79-97.31,115.65-140.17,42.86-42.86,90.02-81.77,140.17-115.65,50.62-34.2,104.74-63.58,160.85-87.31,57.14-24.17,116.93-42.73,177.72-55.17,62.39-12.77,126.61-19.24,190.88-19.24m0-28C436.52,0,0,436.52,0,975s436.52,975,975,975,975-436.52,975-975S1513.48,0,975,0h0Z"/>
        </g>
        <g id="System">
          <path class="cls-3" d="M1106.14,1941.25c-5.02,.68-10.06,1.32-15.12,1.91-38.04,4.52-76.76,6.84-116.02,6.84-10.71,0-21.37-.17-31.99-.52-5.18-.16-10.35-.37-15.51-.62-5.16-.24-10.31-.53-15.45-.86-18.58-1.18-37.01-2.89-55.29-5.1-5.03-.6-10.04-1.25-15.04-1.94l25.17-309.98,1.34-16.56,1.36-16.73,15.78-194.47h0s8.42-103.69,8.42-103.69l2.11-25.98h.01s33.09,25.88,33.09,25.88l142.47,111.4,6.02,4.71,19.84,15.51,.27,15.45,.34,20.15,3.34,193.36,.27,15.44h0s.26,15.45,.26,15.45l4.33,250.35Z"/>
          <path class="cls-1" d="M1106.14,1941.25c-5.02,.68-10.06,1.32-15.12,1.91-38.04,4.52-76.76,6.84-116.02,6.84-10.71,0-21.37-.17-31.99-.52-5.18-.16-10.35-.37-15.51-.62-5.16-.24-10.31-.53-15.45-.86-18.58-1.18-37.01-2.89-55.29-5.1-5.03-.6-10.04-1.25-15.04-1.94l25.17-309.98,1.34-16.56,1.36-16.73,15.78-194.47h0s8.42-103.69,8.42-103.69l2.11-25.98h.01s33.09,25.88,33.09,25.88l142.47,111.4,6.02,4.71,19.84,15.51,.27,15.45,.34,20.15,3.34,193.36,.27,15.44h0s.26,15.45,.26,15.45l4.33,250.35Z"/>
          <path class="cls-6" d="M1117,1693.73l-.27-15.45-.26-15.45-3.34-193.35-.35-20.16-.27-15.44-.05-3.09v-.4s-.12-6.82-.12-6.82l-.32-.25-8.29-6.48-8.16-6.38-114.36-89.43-73.76-57.68-18.54-14.49-5.82-4.55-.56,6.86-.14,1.82-1.97,24.17-1.76,21.76-23.5,289.53-1.4,17.2v.02l-1.38,16.99-25.66,316.14c4.98,.76,9.99,1.48,15,2.16,5,.69,10.01,1.34,15.04,1.94l24.72-304.49,1.31-16.21h0s1.33-16.33,1.33-16.33l14.31-176.36,8.74-107.59,1.55-19.13,8.74,6.83,33.1,25.88,88.65,69.33,25.86,20.22,3.31,2.59,11.94,9.33,1.99,1.56,.09,5.14,.3,17.49,.05,2.66,3.33,193.36,.27,15.44h0s.27,15.45,.27,15.45l4.4,255.09c5.06-.59,10.1-1.23,15.12-1.91,5.05-.67,10.08-1.39,15.1-2.15l-4.24-245.37Z"/>
          <path id="Carabiner" class="cls-2" d="M1759.9,1547.33c-.65,.16-1.3,.32-1.96,.47-.87,.19-1.74,.38-2.62,.54-.51,.1-1.01,.18-1.51,.27-.01-.01-.02,0-.03,0-.52,.08-1.03,.16-1.55,.24-6.98,1.01-14.12,1.06-21.22,.08-.77-.11-1.54-.22-2.31-.36-.38-.06-.76-.13-1.14-.2l-70.1-13.05-33.71-6.27-511.08-95.14-.16-.03-15.18-2.83-11.1-2.07-16.61-3.09-4.55-.84-54.99-10.24c-21.29-3.96-39.87-16.9-50.97-35.48l-41.65-69.71-21.55-36.06h-.01s-12.61-21.12-12.61-21.12l-.76-1.27-6.99-11.71-7.77-13-80.44-134.62c-11.88-19.88-14-43.7-5.82-65.36l48.98-129.74,5.35-14.17,5.35-14.15,207.56-549.78,5.35-14.17,5.35-14.16L1162.27,17.97c-5.02-.98-10.06-1.92-15.12-2.82C1092.38,5.39,1036.02,.21,978.49,.01c-1.16-.01-2.33-.01-3.49-.01-15.48,0-30.88,.36-46.18,1.08-5.51,.25-11.02,.55-16.51,.9,0,0-.01,0-.02,.01l-77.26,204.63-5.34,14.14v.02l-1.26,3.33-4.09,10.84-3.06,8.09-204.5,541.68-5.25,13.88-.1,.28-5.35,14.16-48.64,128.84c-.43,1.13-.84,2.26-1.25,3.39,0,0,0,.01-.01,.02-.94,2.55-1.84,5.11-2.69,7.67-.28,.85-.57,1.71-.85,2.57-.37,1.16-.74,2.31-1.11,3.46-.44,1.41-.87,2.82-1.3,4.24-.87,2.89-1.69,5.79-2.47,8.69-.36,1.35-.71,2.7-1.06,4.06h0c-.73,2.85-1.41,5.7-2.05,8.55-.64,2.86-1.24,5.72-1.8,8.58-.5,2.52-.96,5.05-1.4,7.57-.2,1.17-.39,2.34-.58,3.5-.37,2.34-.72,4.68-1.03,7.02-.16,1.18-.32,2.35-.46,3.52-3.6,28.85-3.15,57.91,1.27,86.45,.47,3.03,.98,6.05,1.54,9.07,1.15,6.22,2.5,12.41,4.03,18.57,.33,1.35,.68,2.69,1.03,4.04,.39,1.44,.77,2.87,1.17,4.31,.34,1.21,.68,2.42,1.04,3.62,.14,.5,.29,1,.44,1.49,.3,1.04,.61,2.08,.94,3.11,7.38,23.95,17.7,47.22,30.9,69.32l110.76,185.37,8.11,13.58,8.11,13.57,44.79,74.96c3.38,5.66,6.93,11.19,10.65,16.59h0c1.24,1.81,2.49,3.6,3.76,5.37,1.9,2.66,3.84,5.29,5.84,7.88,.66,.86,1.33,1.72,2,2.58,1.32,1.71,2.68,3.41,4.06,5.09,.69,.84,1.38,1.68,2.07,2.51,.7,.83,1.4,1.66,2.1,2.49,.7,.83,1.41,1.65,2.12,2.47,.71,.82,1.42,1.63,2.14,2.44,1.44,1.62,2.89,3.22,4.36,4.81,.73,.79,1.47,1.58,2.21,2.37,2.22,2.36,4.48,4.69,6.78,6.96,.91,.9,1.83,1.8,2.75,2.69,.62,.61,1.25,1.22,1.88,1.82,1.05,1,2.11,2,3.18,2.98,1.41,1.32,2.84,2.62,4.28,3.9,1.09,.98,2.19,1.95,3.3,2.91,1.22,1.06,2.45,2.11,3.68,3.15,.51,.43,1.01,.87,1.51,1.29,.5,.43,1,.84,1.51,1.25,.14,.12,.29,.23,.43,.35,.99,.81,1.98,1.61,2.98,2.41,.88,.7,1.75,1.4,2.63,2.09,.89,.7,1.77,1.39,2.66,2.07,.98,.75,1.96,1.5,2.95,2.24,2.64,1.97,5.3,3.9,8,5.79,3.43,2.41,6.9,4.74,10.42,6.99,2.02,1.3,4.06,2.58,6.11,3.82,1.41,.86,2.82,1.71,4.24,2.54,1.37,.81,2.74,1.6,4.12,2.39,.09,.05,.17,.09,.26,.15,2.77,1.56,5.56,3.09,8.38,4.58,.18,.1,.36,.19,.55,.29,1.34,.7,2.69,1.4,4.05,2.09,.44,.23,.88,.46,1.32,.67,2.51,1.27,5.03,2.49,7.58,3.67,1.5,.7,3,1.39,4.5,2.07,3.01,1.36,6.05,2.67,9.12,3.92,1.53,.63,3.07,1.25,4.61,1.86s3.09,1.2,4.64,1.78c1.55,.59,3.11,1.16,4.68,1.72,1.42,.5,2.84,1,4.27,1.49,.31,.1,.61,.21,.92,.31,2.86,.97,5.73,1.89,8.62,2.78,.23,.07,.46,.14,.69,.21,1.49,.45,2.99,.9,4.5,1.33,1.6,.46,3.21,.91,4.82,1.34,1.53,.42,3.06,.82,4.6,1.21,.42,.11,.85,.21,1.28,.31,.91,.24,1.83,.47,2.75,.68,.81,.2,1.62,.39,2.43,.58,.7,.16,1.41,.32,2.11,.48,.86,.2,1.72,.39,2.58,.57,.63,.14,1.25,.27,1.88,.4,.79,.17,1.58,.33,2.37,.49,1.5,.3,3,.59,4.5,.87l24.98,4.65,14.93,2.78,14.93,2.78,65.27,12.15,15.2,2.83,15.18,2.82,437.13,81.37s.02-.02,.03-.02c5.48-4.06,10.92-8.17,16.32-12.34,68.34-52.74,129.49-114.36,181.72-183.13,4.65-6.12,9.23-12.3,13.74-18.54-1.9,.65-3.82,1.22-5.77,1.71Z"/>
          <path id="S_Carabiner" data-name="S Carabiner" class="cls-1" d="M1765.67,1545.61c-1.9,.64-3.83,1.22-5.77,1.72-.65,.16-1.3,.32-1.96,.47-.87,.19-1.74,.38-2.62,.54-.51,.1-1.01,.18-1.51,.27-.01-.01-.02,0-.03,0-.52,.08-1.03,.16-1.55,.24-6.98,1.01-14.12,1.06-21.22,.08-.77-.11-1.54-.22-2.31-.36-.38-.06-.75-.12-1.12-.19l-70.12-13.03v-.05l-4.08-.76-29.63-5.49-16.64-3.09-9.82,7.67c-2.14,1.67-4.37,3.22-6.66,4.65-15.91,9.86-35.05,13.54-53.64,10.1l-423.86-78.9-15.19-2.83-15.19-2.83-1.43-.27-15.68-2.91-15.59-2.91-151.62-28.22-3.7-.69-3.79-.72-.81-13.36c-.25-4.27-1.93-8.33-4.76-11.52h0c-.4-.46-.83-.9-1.28-1.32l-5.43-102.98-1.43-27.11-.81-15.27-.9-17.07c-7.12-1.8-13.96-3.38-20.47-4.78-.18-.04-.36-.08-.54-.11-17.2-3.68-32.1-6.04-43.97-7.61-31.3-4.14-60.87-7.83-98.09-1.87-13.59,2.17-24.58,5.05-31.84,7.18-27.96-46.81-55.92-93.63-83.87-140.44-11.88-19.88-13.99-43.69-5.8-65.34l72.51-192.06,5.35-14.17v-.03s5.35-14.13,5.35-14.13l203.79-539.79,3.77-9.98,5.35-14.16,5.34-14.17L978.49,.01c-1.16-.01-2.33-.01-3.49-.01-15.48,0-30.88,.36-46.18,1.08-5.51,.25-11.02,.55-16.51,.9l-77.26,204.64-5.34,14.15v.02s-1.27,3.32-1.27,3.32l-4.09,10.84-3.05,8.1-204.51,541.67-5.24,13.89-.11,.27-5.35,14.17-48.63,128.81c-.43,1.13-.85,2.27-1.27,3.41,0,0,0,.01-.01,.02-.92,2.55-1.82,5.1-2.69,7.67-.28,.85-.57,1.71-.85,2.57-.37,1.16-.74,2.31-1.11,3.46-.44,1.41-.87,2.82-1.3,4.24-.86,2.89-1.68,5.78-2.47,8.69-.36,1.35-.71,2.7-1.06,4.06h0c-.72,2.85-1.4,5.7-2.05,8.55-.64,2.86-1.24,5.72-1.8,8.58-.5,2.52-.96,5.05-1.4,7.57-.2,1.17-.39,2.34-.58,3.5-.37,2.34-.71,4.68-1.03,7.02-.16,1.18-.32,2.35-.46,3.52-3.6,28.85-3.15,57.91,1.27,86.45,.47,3.03,.98,6.05,1.54,9.07,1.15,6.22,2.5,12.41,4.03,18.57,.33,1.35,.68,2.69,1.03,4.04,.39,1.44,.77,2.87,1.17,4.31,.34,1.21,.68,2.42,1.04,3.62,.14,.5,.29,1,.44,1.49,.3,1.04,.61,2.08,.94,3.11,7.38,23.95,17.7,47.22,30.9,69.32l37.41,62.56,1.39,2.35,71.97,120.45,8.11,13.57,8.11,13.58,44.79,74.95c3.38,5.67,6.93,11.2,10.64,16.61h0c1.24,1.81,2.49,3.6,3.76,5.37,1.91,2.66,3.86,5.28,5.84,7.88,.66,.86,1.33,1.72,2,2.58,1.34,1.71,2.69,3.41,4.06,5.09,.69,.84,1.38,1.68,2.07,2.51,.7,.83,1.4,1.66,2.1,2.49,.7,.83,1.41,1.65,2.12,2.47,.71,.82,1.42,1.63,2.14,2.44,1.44,1.62,2.89,3.22,4.36,4.81,.73,.79,1.47,1.58,2.21,2.37,2.23,2.35,4.49,4.67,6.78,6.96,.91,.9,1.83,1.8,2.75,2.69,.62,.61,1.25,1.22,1.88,1.82,1.05,1,2.11,2,3.18,2.98,1.41,1.32,2.84,2.62,4.28,3.9,1.09,.98,2.19,1.95,3.3,2.91,1.22,1.06,2.45,2.11,3.68,3.15,.51,.43,1.01,.87,1.51,1.29,.5,.43,1,.84,1.51,1.25,.14,.12,.29,.23,.43,.35,1.85,1.52,3.72,3.03,5.61,4.5,.89,.7,1.77,1.39,2.66,2.07,.98,.75,1.96,1.5,2.95,2.24,2.64,1.97,5.3,3.9,8,5.79,3.43,2.39,6.9,4.72,10.42,6.97,2.02,1.31,4.06,2.59,6.11,3.84,1.41,.86,2.82,1.71,4.24,2.54,1.37,.81,2.74,1.6,4.12,2.39,.09,.05,.17,.09,.26,.15,2.77,1.56,5.56,3.09,8.38,4.58,.18,.1,.36,.19,.55,.29,1.34,.7,2.69,1.4,4.05,2.09,.44,.22,.88,.44,1.32,.66,2.51,1.26,5.04,2.49,7.58,3.68,1.5,.7,3,1.39,4.5,2.07,3.02,1.35,6.06,2.66,9.12,3.92,1.53,.63,3.07,1.25,4.61,1.86s3.09,1.2,4.64,1.78c1.55,.59,3.11,1.16,4.68,1.72,1.42,.5,2.84,1,4.27,1.49,.31,.1,.61,.21,.92,.31,2.86,.97,5.73,1.89,8.62,2.78,.23,.07,.46,.14,.69,.21,1.49,.45,2.99,.9,4.5,1.33,1.6,.46,3.21,.91,4.82,1.34,1.53,.42,3.06,.82,4.6,1.21,.42,.11,.85,.21,1.28,.31,.91,.24,1.83,.47,2.75,.68,.81,.2,1.62,.39,2.43,.58,.7,.16,1.41,.32,2.11,.48,.86,.2,1.72,.39,2.58,.57,.63,.14,1.25,.27,1.88,.4,.79,.17,1.58,.33,2.37,.49,1.5,.3,3,.59,4.5,.87l24.98,4.65,14.93,2.78,14.93,2.78,65.27,12.14,15.2,2.83,15.18,2.83,437.16,81.35c5.48-4.06,10.92-8.17,16.32-12.34,68.34-52.74,129.49-114.36,181.72-183.13,4.65-6.12,9.23-12.3,13.74-18.54,.39-.13,.77-.26,1.15-.4-.38,.13-.76,.26-1.15,.39Z"/>
          <path class="cls-6" d="M1786.74,1515.28l-8.18,6.41c-13.63,10.66-31.21,14.96-48.23,11.79l-618.61-115.16-7.99-1.48-7.36-1.37-17.2-3.2-7.7-1.44-32.26-6-26.36-4.91c-17.02-3.16-31.87-13.5-40.75-28.36l-21.54-36.06-21.56-36.07-21.55-36.08-11.38-19.04-7.77-13-7.77-12.99-80.21-134.25c-9.49-15.88-11.19-34.93-4.65-52.24l49.01-129.8,5.35-14.17,5.34-14.17,207.52-549.65,5.39-14.28,5.32-14.09L1177.3,21.01c-4.99-1.05-10-2.07-15.03-3.04-5.02-.98-10.06-1.92-15.12-2.82l-101.89,269.87-5.35,14.16-5.34,14.17-207.57,549.77-5.35,14.16-5.35,14.17-48.96,129.69c-9.81,26-7.27,54.6,6.99,78.47l80.52,134.75,.2,.33,7.58,12.69,7.77,13,6.83,11.43,3.19,5.35,13.37,22.37,13.38,22.39,38.94,65.17c13.33,22.32,35.64,37.85,61.2,42.6l53.08,9.88,16.08,2.99,5.93,1.11,10.35,1.93,4.85,.9,15.18,2.82,.84,.16,477.01,88.8,134.16,24.97c5.51,1.02,11.06,1.53,16.57,1.53,3.54,0,7.07-.21,10.57-.62,4.65-6.12,9.23-12.3,13.74-18.54,.39-.13,.77-.26,1.15-.4-.38,.13-.76,.26-1.15,.39,7.21-9.97,14.24-20.08,21.07-30.33Zm0,0l-8.18,6.41c-13.63,10.66-31.21,14.96-48.23,11.79l-618.61-115.16-7.99-1.48-7.36-1.37-17.2-3.2-7.7-1.44-32.26-6-26.36-4.91c-17.02-3.16-31.87-13.5-40.75-28.36l-21.54-36.06-21.56-36.07-21.55-36.08-11.38-19.04-7.77-13-7.77-12.99-80.21-134.25c-9.49-15.88-11.19-34.93-4.65-52.24l49.01-129.8,5.35-14.17,5.34-14.17,207.52-549.65,5.39-14.28,5.32-14.09L1177.3,21.01c-4.99-1.05-10-2.07-15.03-3.04-5.02-.98-10.06-1.92-15.12-2.82l-101.89,269.87-5.35,14.16-5.34,14.17-207.57,549.77-5.35,14.16-5.35,14.17-48.96,129.69c-9.81,26-7.27,54.6,6.99,78.47l80.52,134.75,.2,.33,7.58,12.69,7.77,13,6.83,11.43,3.19,5.35,13.37,22.37,13.38,22.39,38.94,65.17c13.33,22.32,35.64,37.85,61.2,42.6l53.08,9.88,16.08,2.99,5.93,1.11,10.35,1.93,4.85,.9,15.18,2.82,.84,.16,477.01,88.8,134.16,24.97c5.51,1.02,11.06,1.53,16.57,1.53,3.54,0,7.07-.21,10.57-.62,4.65-6.12,9.23-12.3,13.74-18.54,.39-.13,.77-.26,1.15-.4-.38,.13-.76,.26-1.15,.39,7.21-9.97,14.24-20.08,21.07-30.33ZM842.08,229.54c-2.23-1-4.77-2.1-7.57-3.2-.44-.17-.89-.34-1.34-.52-.39-.15-.77-.3-1.17-.44-.53-.2-1.07-.4-1.62-.59,0-.01,0-.01,0-.01-.56-.2-1.12-.39-1.69-.58-.08-.03-.16-.06-.24-.09l-4.09,10.84-3.05,8.1,14.17,5.28,3.05-8.09,4.04-10.7h-.48Zm944.66,1285.74l-8.18,6.41c-13.63,10.66-31.21,14.96-48.23,11.79l-618.61-115.16-7.99-1.48-7.36-1.37-17.2-3.2-7.7-1.44-32.26-6-26.36-4.91c-17.02-3.16-31.87-13.5-40.75-28.36l-21.54-36.06-21.56-36.07-21.55-36.08-11.38-19.04-7.77-13-7.77-12.99-80.21-134.25c-9.49-15.88-11.19-34.93-4.65-52.24l49.01-129.8,5.35-14.17,5.34-14.17,207.52-549.65,5.39-14.28,5.32-14.09L1177.3,21.01c-4.99-1.05-10-2.07-15.03-3.04-5.02-.98-10.06-1.92-15.12-2.82l-101.89,269.87-5.35,14.16-5.34,14.17-207.57,549.77-5.35,14.16-5.35,14.17-48.96,129.69c-9.81,26-7.27,54.6,6.99,78.47l80.52,134.75,.2,.33,7.58,12.69,7.77,13,6.83,11.43,3.19,5.35,13.37,22.37,13.38,22.39,38.94,65.17c13.33,22.32,35.64,37.85,61.2,42.6l53.08,9.88,16.08,2.99,5.93,1.11,10.35,1.93,4.85,.9,15.18,2.82,.84,.16,477.01,88.8,134.16,24.97c5.51,1.02,11.06,1.53,16.57,1.53,3.54,0,7.07-.21,10.57-.62,4.65-6.12,9.23-12.3,13.74-18.54,.39-.13,.77-.26,1.15-.4-.38,.13-.76,.26-1.15,.39,7.21-9.97,14.24-20.08,21.07-30.33Zm-670.27,147.55l-15.19-2.82-15.2-2.83-61.04-11.36-14.93-2.78-14.93-2.78-26.16-4.87c-29.93-5.57-58.51-15.61-84.9-29.52-4.92-2.59-9.77-5.32-14.53-8.18-4.9-2.94-9.71-6.02-14.43-9.24-35.65-24.26-66.05-56.2-88.66-94.04l-47.13-78.88-8.12-13.58-8.11-13.57-108.41-181.45c-47.19-78.98-55.62-173.63-23.13-259.7l48.66-128.9,5.35-14.16,.08-.22,5.27-13.94L835.47,248.33l3.05-8.09,4.04-10.7,1.31-3.46h0s5.35-14.17,5.35-14.17L928.82,1.08c-5.51,.25-11.02,.55-16.51,.9,0,0-.01,0-.02,.01-5.55,.35-11.1,.75-16.63,1.19l-74.81,198.16-5.34,14.15h-.01s-1.8,4.78-1.8,4.78l-3.55,9.4-3.05,8.08-204.47,541.57-5.26,13.93-.12,.34-5.33,14.1-48.64,128.84c-35.78,94.77-26.5,198.98,25.46,285.93l113.11,189.31,8.11,13.58,8.12,13.57,42.43,71.02c27.85,46.61,66.45,85.1,111.87,112.72,4.76,2.9,9.6,5.67,14.51,8.32,4.79,2.6,9.66,5.08,14.59,7.43,25.81,12.35,53.34,21.4,82,26.74l23.78,4.43,29.86,5.56,69.5,12.93,15.19,2.83,15.19,2.83,419.91,78.16c5.69-4.02,11.34-8.1,16.95-12.24,.01,0,.02-.02,.03-.02,5.48-4.06,10.92-8.17,16.32-12.34l-453.74-84.46ZM842.08,229.54c-2.23-1-4.77-2.1-7.57-3.2-.44-.17-.89-.34-1.34-.52-.39-.15-.77-.3-1.17-.44-.53-.2-1.07-.4-1.62-.59,0-.01,0-.01,0-.01-.56-.2-1.12-.39-1.69-.58-.08-.03-.16-.06-.24-.09l-4.09,10.84-3.05,8.1,14.17,5.28,3.05-8.09,4.04-10.7h-.48Zm944.66,1285.74l-8.18,6.41c-13.63,10.66-31.21,14.96-48.23,11.79l-618.61-115.16-7.99-1.48-7.36-1.37-17.2-3.2-7.7-1.44-32.26-6-26.36-4.91c-17.02-3.16-31.87-13.5-40.75-28.36l-21.54-36.06-21.56-36.07-21.55-36.08-11.38-19.04-7.77-13-7.77-12.99-80.21-134.25c-9.49-15.88-11.19-34.93-4.65-52.24l49.01-129.8,5.35-14.17,5.34-14.17,207.52-549.65,5.39-14.28,5.32-14.09L1177.3,21.01c-4.99-1.05-10-2.07-15.03-3.04-5.02-.98-10.06-1.92-15.12-2.82l-101.89,269.87-5.35,14.16-5.34,14.17-207.57,549.77-5.35,14.16-5.35,14.17-48.96,129.69c-9.81,26-7.27,54.6,6.99,78.47l80.52,134.75,.2,.33,7.58,12.69,7.77,13,6.83,11.43,3.19,5.35,13.37,22.37,13.38,22.39,38.94,65.17c13.33,22.32,35.64,37.85,61.2,42.6l53.08,9.88,16.08,2.99,5.93,1.11,10.35,1.93,4.85,.9,15.18,2.82,.84,.16,477.01,88.8,134.16,24.97c5.51,1.02,11.06,1.53,16.57,1.53,3.54,0,7.07-.21,10.57-.62,4.65-6.12,9.23-12.3,13.74-18.54,.39-.13,.77-.26,1.15-.4-.38,.13-.76,.26-1.15,.39,7.21-9.97,14.24-20.08,21.07-30.33Zm0,0l-8.18,6.41c-13.63,10.66-31.21,14.96-48.23,11.79l-618.61-115.16-7.99-1.48-7.36-1.37-17.2-3.2-7.7-1.44-32.26-6-26.36-4.91c-17.02-3.16-31.87-13.5-40.75-28.36l-21.54-36.06-21.56-36.07-21.55-36.08-11.38-19.04-7.77-13-7.77-12.99-80.21-134.25c-9.49-15.88-11.19-34.93-4.65-52.24l49.01-129.8,5.35-14.17,5.34-14.17,207.52-549.65,5.39-14.28,5.32-14.09L1177.3,21.01c-4.99-1.05-10-2.07-15.03-3.04-5.02-.98-10.06-1.92-15.12-2.82l-101.89,269.87-5.35,14.16-5.34,14.17-207.57,549.77-5.35,14.16-5.35,14.17-48.96,129.69c-9.81,26-7.27,54.6,6.99,78.47l80.52,134.75,.2,.33,7.58,12.69,7.77,13,6.83,11.43,3.19,5.35,13.37,22.37,13.38,22.39,38.94,65.17c13.33,22.32,35.64,37.85,61.2,42.6l53.08,9.88,16.08,2.99,5.93,1.11,10.35,1.93,4.85,.9,15.18,2.82,.84,.16,477.01,88.8,134.16,24.97c5.51,1.02,11.06,1.53,16.57,1.53,3.54,0,7.07-.21,10.57-.62,4.65-6.12,9.23-12.3,13.74-18.54,.39-.13,.77-.26,1.15-.4-.38,.13-.76,.26-1.15,.39,7.21-9.97,14.24-20.08,21.07-30.33Z"/>
          <rect id="Lock" class="cls-7" x="645.91" y="242.7" width="373.63" height="617.92" rx="14.2" ry="14.2" transform="translate(245.26 -256.2) rotate(20.45)"/>
          <path id="S_Lock" data-name="S Lock" class="cls-1" d="M864.94,259.32l-97.07-36.2c10.33-2.85,25.09-5.88,43.29-3.27,12.34,1.82,23.43,6.32,30.92,9.69h11.01l-23.73-8.89-13.36-4.96c-18.58-6.93-38.53-2.91-52.83,8.78,0,0,.02,0,.02,0-7.15,5.81-12.9,13.53-16.33,22.79l-178.34,478.27c-9.61,25.77,1.82,54.24,25.66,66.54h.04l82.65,31.23c11.84,4.26,30.77,11.48,49.74-39.21l169.9-455.64c10.37-27.82-3.75-58.74-31.56-69.11Z"/>
          <path class="cls-6" d="M707.19,818.44l-33.04-12.33-43.19-16.1-5.27,13.94,43.12,16.29v.03s-5.36,14.17-5.36,14.17l152.85,57.01,5.35-14.17,5.35-14.16-119.81-44.68Zm0,0l-33.04-12.33-43.19-16.1-5.27,13.94,43.12,16.29v.03s-5.36,14.17-5.36,14.17l152.85,57.01,5.35-14.17,5.35-14.16-119.81-44.68Zm0,0l-33.04-12.33-43.19-16.1-5.27,13.94,43.12,16.29v.03s-5.36,14.17-5.36,14.17l152.85,57.01,5.35-14.17,5.35-14.16-119.81-44.68Zm0,0l-33.04-12.33-43.19-16.1-5.27,13.94,43.12,16.29v.03s-5.36,14.17-5.36,14.17l152.85,57.01,5.35-14.17,5.35-14.16-119.81-44.68Zm404.46-482.02h0c-.7-2.03-1.51-4.04-2.41-6.01-.9-1.96-1.87-3.87-2.93-5.72-7.45-13.01-18.83-23.13-32.71-29.02-.97-.42-1.95-.81-2.94-1.18l-11.21-4.18-14.19-5.29-152.86-57.01-43.18-16.1-14.17-5.29h-.02l-13.75-5.13c-.14-.05-.29-.11-.43-.15-15.07-5.51-31.25-5.61-46.24-.37h0c-2.02,.7-4.03,1.5-6,2.4-1.96,.89-3.86,1.87-5.71,2.93-13.93,7.97-24.53,20.44-30.21,35.66l-178.37,478.27c-5.66,15.2-5.81,31.55-.52,46.67h0c.7,2.03,1.51,4.04,2.41,6.01,.9,1.96,1.87,3.87,2.93,5.72,7.47,13.04,18.87,23.17,32.79,29.06,.94,.4,1.9,.78,2.86,1.14l11.3,4.21h.01s14.17,5.29,14.17,5.29l43.19,16.11,152.85,57.01,14.19,5.29,13.67,5.1c.17,.06,.35,.13,.52,.19,7.68,2.79,15.64,4.19,23.58,4.19,7.64-.01,15.27-1.3,22.61-3.87,2.01-.7,4.01-1.5,5.97-2.4,1.96-.89,3.86-1.87,5.71-2.93,13.93-7.97,24.53-20.43,30.21-35.65l178.37-478.28c5.67-15.19,5.82-31.54,.52-46.67Zm-227.39,535.99c-9.17,4.2-19.4,4.64-28.89,1.28-.21-.07-.42-.14-.63-.22l-13.55-5.05-14.19-5.3-119.81-44.68-33.04-12.33-43.19-16.1-14.17-5.29h-.01l-11.42-4.26c-.93-.35-1.84-.73-2.73-1.14-8.38-3.86-15.02-10.51-18.89-18.99-4.29-9.37-4.66-19.86-1.06-29.52l178.37-478.27c3.6-9.67,10.75-17.34,20.13-21.63,1.21-.55,2.43-1.04,3.67-1.45h0c4.01-1.37,8.16-2.05,12.33-2.05s8.74,.74,12.96,2.26c.18,.05,.37,.12,.55,.19l13.64,5.09h.01l14.17,5.29,43.19,16.1,152.86,57.01,14.18,5.29,11.33,4.22c.96,.36,1.9,.75,2.81,1.18,18.07,8.4,26.94,29.49,19.87,48.47l-178.37,478.28c-3.6,9.66-10.75,17.34-20.13,21.62Zm-177.07-53.97l-33.04-12.33-43.19-16.1-5.27,13.94,43.12,16.29v.03s-5.36,14.17-5.36,14.17l152.85,57.01,5.35-14.17,5.35-14.16-119.81-44.68Zm0,0l-33.04-12.33-43.19-16.1-5.27,13.94,43.12,16.29v.03s-5.36,14.17-5.36,14.17l152.85,57.01,5.35-14.17,5.35-14.16-119.81-44.68Zm0,0l-33.04-12.33-43.19-16.1-5.27,13.94,43.12,16.29v.03s-5.36,14.17-5.36,14.17l152.85,57.01,5.35-14.17,5.35-14.16-119.81-44.68Z"/>
          <path class="cls-6" d="M1814.84,1461.56c-7.23,5.54-11.62,14.19-11.87,23.27l-.57,6.2c7.53-12.04,14.8-24.26,21.8-36.64l-9.36,7.17Z"/>
          <path class="cls-3" d="M1097.33,1431.05l-11.1-2.07c-2.03,2.62-4.01,5.28-5.91,7.99-1.32,1.84-2.6,3.71-3.85,5.59-3.89,5.86-7.51,11.89-10.83,18.08-6.24,11.56-11.47,23.67-15.64,36.18l-2.04,6.1-37.85,140.12-3.96,14.66-3.96,14.66-74.69,276.5c-5.16-.24-10.31-.53-15.45-.86-18.58-1.18-37.01-2.89-55.29-5.1-5.03-.6-10.04-1.25-15.04-1.94-5.01-.68-10.02-1.4-15-2.16-156.95-23.95-301.59-85.32-424.53-174.72-4.1-2.98-8.18-6-12.23-9.04l300-329.69,10.65-11.7v-.02s10.64-11.68,10.64-11.68l103.92-114.2,.66-.71c13.92-15.12,29.64-28.44,46.8-39.66,4.21-2.77,8.51-5.41,12.89-7.91h.02s12.76-8.16,12.76-8.16l.07-.04c6.52-4.16,15.03-3.39,20.7,1.89l181.21,168.76c2.52,2.34,4.33,5.3,5.29,8.54,.41,1.38,.67,2.82,.76,4.28l.04,.73,.96,15.58Z"/>
          <path class="cls-6" d="M1112.67,1433.91l-.22-3.52-.43-7.07-.3-5-.28-4.51c-.54-8.8-4.39-16.96-10.84-22.96l-181.21-168.77c-10.63-9.9-26.56-11.42-38.86-3.76-.1,.06-.21,.12-.31,.19l-12.45,7.95-.09,.05c-4.36,2.5-8.64,5.11-12.83,7.85-.11,.07-.23,.14-.34,.22-18.27,11.94-34.98,26.09-49.81,42.19l-101.56,111.61-10.63,11.68h-.01s-10.65,11.71-10.65,11.71l-303.97,334.05c4,3.1,8.03,6.18,12.08,9.22,4.05,3.04,8.13,6.06,12.23,9.04l295.89-325.16,10.64-11.7h.01s10.64-11.69,10.64-11.69l106.93-117.52,.66-.72c12.95-14.06,27.52-26.44,43.44-36.91,1.98-1.32,3.99-2.6,6.02-3.84,1.97-1.22,3.96-2.41,5.97-3.55,.21-.13,.43-.26,.64-.38l.26-.17,5.62-3.58,7.16-4.55,.44-.28c.71-.45,1.63-.36,2.24,.21l82.46,76.79,97.96,91.24,.5,.46-2.18,2.81-3.23,4.17c-1.58,2.04-3.12,4.1-4.64,6.18-.42,.58-.83,1.16-1.24,1.75-2.79,3.9-5.45,7.88-7.99,11.93-3.71,5.91-7.16,11.96-10.34,18.16-5.65,11.01-10.47,22.47-14.41,34.3l-2.18,6.52-38.28,141.71-3.96,14.66-3.96,14.66-75.21,278.42c5.14,.33,10.29,.62,15.45,.86,5.16,.25,10.33,.46,15.51,.62l74.11-274.34,3.96-14.66,3.96-14.66,37.42-138.52,1.9-5.7c4.42-13.26,10.09-25.98,16.96-38.05,.45-.8,.91-1.6,1.38-2.39,3.12-5.32,6.47-10.51,10.05-15.56l4.85,.9,15.18,2.82,.84,.16-.95-15.57Z"/>
        </g>
      </g>
    </g>
  </g>
</svg>