<?xml version="1.0" encoding="UTF-8"?>
<svg xmlns="http://www.w3.org/2000/svg" viewBox="0 0 1992 1992">
  <defs>
    <style>
      .cls-1 {
        isolation: isolate;
      }

      .cls-2 {
        fill: #4d4d4d;
      }

      .cls-3 {
        fill: #b0b0b0;
      }

      .cls-4 {
        fill: #a1a1a1;
      }

      .cls-5 {
        fill: #fff;
        stroke: #ababab;
        stroke-miterlimit: 10;
        stroke-width: 10px;
      }

      .cls-6 {
        opacity: .49;
      }

      .cls-7 {
        fill: #ffc81a;
      }

      .cls-8 {
        opacity: .28;
      }

      .cls-8, .cls-9 {
        mix-blend-mode: hard-light;
      }

      .cls-10 {
        fill: #949494;
      }

      .cls-9 {
        opacity: .2;
      }

      .cls-11 {
        mix-blend-mode: overlay;
        opacity: .5;
      }
    </style>
  </defs>
  <g class="cls-1">
    <g id="Draawing">
      <g>
        <circle id="BG" class="cls-5" cx="996" cy="996" r="991"/>
        <g id="System">
          <polygon id="Belt_2_Bottom" data-name="Belt 2 Bottom" class="cls-10" points="1051.29 1402.77 1018.31 1844.33 1125.81 1825.65 1104.52 1361.15 1051.29 1402.77"/>
          <polygon id="Belt_1_Bottom" data-name="Belt 1 Bottom" class="cls-10" points="861.51 1381.39 869.35 1835.6 769.6 1816.45 808.29 1339.78 861.51 1381.39"/>
          <path id="Carabiner" class="cls-4" d="M1016.45,1474.61l-189.57-35.29c-23.47-4.37-43.96-18.63-56.21-39.13l-45.39-75.96c-13.1-21.92-15.44-48.19-6.42-72.08l224.82-595.47c14.26-37.76,53.41-59.81,93.09-52.42l84.33,15.7c39.68,7.39,68.28,42.04,67.99,82.41l-4.5,636.48c-.18,25.53-11.82,49.21-31.92,64.95l-69.68,54.54c-18.8,14.72-43.05,20.65-66.53,16.28Zm8.73-808.14c-9.51-1.77-18.89,3.51-22.3,12.56l-224.82,595.47c-2.16,5.72-1.6,12.02,1.54,17.27l45.39,75.96c2.93,4.91,7.84,8.33,13.47,9.38l189.57,35.29c5.63,1.05,11.43-.37,15.94-3.9l69.68-54.54c4.82-3.77,7.61-9.44,7.65-15.56l4.5-636.48c.07-9.67-6.78-17.97-16.29-19.74l-84.33-15.7Z"/>
          <path id="S_Carabiner" data-name="S Carabiner" class="cls-11" d="M997.61,606.35c-.72,.21-1.47,.45-2.25,.71-.3,.1-1.14,.38-2.23,.77-.75,.27-1.48,.54-2.21,.84-.52,.2-1.03,.42-1.54,.63-.27,.1-.52,.22-.77,.33-.7,.29-1.38,.59-2.06,.91-.7,.32-1.38,.65-2.06,.99t-.03,.01c-.08,.04-.16,.08-.24,.13-.62,.32-1.23,.62-1.84,.95-.72,.38-1.43,.77-2.14,1.19-.27,.14-.52,.29-.77,.44-.27,.15-.52,.3-.77,.46-.27,.15-.52,.32-.78,.48-.54,.33-1.08,.67-1.61,1.01-.48,.3-.95,.62-1.42,.94-.08,.05-.15,.1-.23,.15-.24,.16-.48,.33-.71,.49-.52,.35-1.03,.71-1.53,1.09-.57,.42-1.14,.85-1.71,1.29-.16,.11-.33,.24-.48,.38-.52,.38-1.03,.8-1.53,1.22-.43,.34-.85,.7-1.27,1.06-.13,.1-.24,.2-.35,.3-.23,.19-.46,.39-.67,.58l-.08,.06-1,.91-.06,.05c-1.22,1.11-2.39,2.25-3.53,3.44-.47,.48-.92,.96-1.38,1.46-.61,.66-1.2,1.33-1.8,2.01-.56,.65-1.1,1.3-1.65,1.96-.03,.04-.05,.06-.08,.1-.46,.56-.9,1.11-1.33,1.7-.39,.49-.76,1-1.14,1.52-.1,.13-.2,.27-.29,.41-.47,.65-.94,1.3-1.38,1.97-.46,.66-.9,1.34-1.33,2.03-.43,.67-.86,1.37-1.28,2.06-.46,.76-.89,1.53-1.33,2.3-.04,.06-.08,.14-.11,.2-.32,.58-.62,1.16-.92,1.76-.03,.04-.05,.08-.06,.11-.34,.67-.68,1.34-1.01,2.03-.03,.04-.04,.08-.06,.13-.03,.05-.05,.11-.08,.16-.25,.53-.49,1.06-.75,1.61,0,.03-.01,.04-.03,.06-.1,.2-.19,.39-.27,.59-.28,.61-.54,1.22-.78,1.84h-.01s-.01,.04-.01,.05c-.34,.81-.66,1.63-.97,2.46l-224.82,595.46c-9.02,23.9-6.68,50.17,6.42,72.09l9.88,16.53,.37,.62,35.13,58.8c4.77,7.99,10.78,15.02,17.74,20.88,.27,.23,.53,.46,.8,.67,10.75,8.86,23.68,14.97,37.67,17.58l178.32,33.19,11.26,2.1c4.68,.86,9.4,1.33,14.1,1.39,.33,.01,.66,.01,.99,.01,18.49,.03,36.64-6.1,51.44-17.68l41.15-32.21-20.73-23.21c.19-.15,.38-.32,.57-.47,19.09-15.71,30.08-38.77,30.26-63.6l4.51-636.48c.28-40.36-28.31-75.01-67.99-82.41l-33.41-6.21c.35-1.28,.71-2.57,1.09-3.88l-28.37-4.79c-1.05-.11-2.18-.18-3.38-.17-3.6,.02-6.67,.69-9.05,1.45Zm-246.21,722.53c-7.39-12.37-14.77-24.74-22.16-37.11-3.14-5.25-3.7-11.54-1.53-17.26l224.82-595.47c4.52-12.9,4.89-14.34,22.3-12.57l20.25,3.77c.13,.67,.28,1.34,.44,2,.33,1.49,.72,2.96,1.16,4.4,.2,.66,.41,1.32,.62,1.96,.03,.09,.05,.18,.09,.27,.16,.48,.33,.96,.52,1.44,.08,.25,.16,.49,.27,.73,.03,.06,.05,.11,.06,.18,.23,.59,.47,1.18,.72,1.76,.28,.67,.58,1.33,.89,1.99,.13,.27,.27,.58,.43,.92l2.59-6.86c.11-.32,.24-.62,.38-.92,.13-.3,.27-.61,.42-.9,.14-.3,.29-.58,.46-.87,.15-.27,.3-.53,.46-.78,.2-.32,.41-.62,.62-.92,.16-.24,.34-.48,.52-.72,.39-.51,.8-.99,1.24-1.46,.23-.25,.47-.49,.72-.73,.24-.23,.49-.46,.75-.68,.01-.03,.03-.04,.05-.05,.24-.22,.49-.42,.76-.62,.25-.2,.52-.41,.78-.58,.27-.19,.56-.38,.84-.57,.22-.14,.43-.27,.65-.38,.19-.11,.38-.23,.57-.33,.18-.09,.35-.19,.54-.28,.29-.14,.57-.28,.86-.41,.03-.01,.05-.03,.06-.03,.3-.14,.62-.27,.94-.38,.28-.1,.54-.2,.84-.3,.01,0,.04-.01,.05-.01,.08-.03,.14-.04,.2-.06,.16-.05,.33-.1,.48-.14,.13-.04,.25-.08,.37-.1,.33-.09,.66-.18,1-.24,.29-.06,.59-.13,.89-.16,.04-.01,.06-.03,.1-.03,.03,0,.05,0,.09-.01,.32-.05,.63-.09,.95-.11,1.87-.2,3.81-.14,5.75,.23l8.71,1.62,75.62,14.07c9.51,1.77,16.35,10.07,16.29,19.76l-4.51,636.48c-.05,6.11-2.84,11.78-7.66,15.55l-31.17,24.41-.58,.46-37.92,29.68c-4.51,3.52-10.31,4.94-15.93,3.9l-18.53-3.44h0s-1.08-.22-1.08-.22l-12.23-2.27-2.59,2.02c-4.51,3.52-10.31,4.94-15.93,3.9l-169.7-31.59-1-.19-.22-3.53c-.08-1.29-.65-2.51-1.59-3.39l-2.27-42.92c-6.92-1.75-12.82-2.73-17.17-3.3-8.27-1.09-16.08-2.07-25.92-.5-3.59,.57-6.49,1.34-8.41,1.9Z"/>
          <rect id="Lock" class="cls-7" x="742.24" y="1067.41" width="98.72" height="163.27" rx="14.2" ry="14.2" transform="translate(451.41 -204.18) rotate(20.45)"/>
          <path id="S_Lock_2" data-name="S Lock 2" class="cls-9" d="M803.89,1096.21l-44.5,119.3c-3.54,6.97-13.92,3.45-13.92,3.45l-11.81-4.4c-9.3-3.47-14.02-13.82-10.56-23.12l44.49-119.3c1.01-2.72,2.63-5.06,4.63-6.91l21.11,7.87c9.29,3.47,14.02,13.81,10.56,23.11Z"/>
          <path id="S_Lock_1" data-name="S Lock 1" class="cls-8" d="M796.98,1063.93h-2.91l-10.02-3.47c2.2-.05,4.47,.3,6.66,1.13l6.28,2.34Z"/>
          <path id="Belt_2_Top" data-name="Belt 2 Top" class="cls-3" d="M1109.73,1357.02l-4.86-1.56c-1.25-.4-2.62-.16-3.67,.64l-47.67,36.53c-.99,.76-1.57,1.94-1.57,3.19l-.63,6.92,5.06-3.96h0c3.28,3.48,5.8,7.62,7.38,12.14l.78,2.23,161.03,493.93,274.7-120.66-374.55-419.51-.03-.02c-4.68-4.23-10.09-7.57-15.98-9.85h0Z"/>
          <path id="Belt_1_Top" data-name="Belt 1 Top" class="cls-3" d="M802.91,1330.77h0c-5.87,3.36-11.19,7.59-15.77,12.57l-.17,.19-352.35,387.22,278.85,169.43,135.02-499.8,.54-1.61c2.16-6.47,5.39-12.53,9.57-17.92h0s2.93,.55,2.93,.55l-.26-4.31c-.08-1.29-.65-2.5-1.6-3.39l-47.88-44.59c-1.5-1.39-3.75-1.6-5.47-.5l-3.39,2.17Z"/>
          <g id="Rope">
            <path id="Rope-2" data-name="Rope" class="cls-2" d="M1231.68,90.44l-54.03,258.37c-13.6,81.46-21.41,159.6-23.21,232.25l-.06,2.66c-.32,13.32-.74,30.7-2.94,48.38-8.98-5.87-19.22-10.08-30.33-12.15l-6.45-1.2c1.22-13.31,1.54-26.22,1.77-35.94l.07-2.69c.88-35.67,3.18-72.61,6.86-110.56-11.4,37.74-22.01,71.07-38.65,113.66l-.06,.15,.06-.15-.06,.15c-14.98,38.3-20.07,71.02-13.29,85.38,.68,1.44,3.63,6.75,7.36,7.67l30.82,5.74c8.62,1.6,15.04,8.58,16.11,17.08-4.25,4.19-9.13,7.62-14.76,10.04-9.69,4.16-18.59,5.59-26.24,5.59-15.35,0-25.69-5.75-27.3-6.7-13.01-7.71-18.51-19.37-20.32-23.2-2.51-5.32-4.2-11.13-5.23-17.28l5.23,17.28c-14.86-31.48-1.53-80.14,12.26-115.42l.06-.15-.06,.15,.06-.15c19.31-49.41,30.39-86.42,44.41-133.27,17.91-59.87,23.79-94.81,27.18-121.1,1.87-14.48,3.27-29.17,4.16-43.66,0,0,0,0,0,0h0c10.14-3.09,20.27-2.62,29.54,1.75l.33,.08,38.77-186.8,1.62-.33c12.27-2.47,25-.94,36.34,4.36h0Z"/>
            <g id="Junction_Rope" data-name="Junction Rope">
              <g>
                <path id="Rope_3" data-name="Rope 3" d="M1168.63,408.61c.07-.83-.66-1.92-1.87-3.63-.82-1.16-1.8-2.19-2.9-3.06-1.16-.92-2.47-1.67-3.87-2.22l-.76-.3c-4.68-1.84-4.77-1.87-16.57-3.5-7.99-1.1-10.69-1.45-14.2-1.49h-1.28c-2.67,0-5.91,.11-9.78,.99-4.88,1.11-9.55,3.18-13.88,6.15-.77,1.15-1.05,2.21-.84,3.13l-2.99,10.91-1.55-.81c-2.77-1.96-4.56-4.58-5.31-7.79-.86-3.66-.05-7.6,2.28-11.08l1.08-1.61,1.6-1.1c5.39-3.7,11.23-6.28,17.36-7.67,4.84-1.1,8.8-1.25,12.02-1.25h1.37c4.13,.05,7.01,.42,15.49,1.59,12.08,1.66,13.14,1.84,18.89,4.1l.76,.3c2.34,.92,4.52,2.17,6.47,3.72,1.85,1.46,3.48,3.19,4.86,5.13,1.84,2.59,4.12,5.8,3.71,10.39-.29,3.28-2.09,7.81-9.02,10.79l-2.74,1.05,1.67-12.74Z"/>
                <path id="Rope_2" data-name="Rope 2" d="M1171.09,409.8l-3.99-9.31c.85-.37,2.85-1.33,2.95-2.39,.07-.83-.66-1.92-1.87-3.63-.82-1.16-1.8-2.19-2.9-3.06-1.16-.92-2.47-1.67-3.87-2.22l-.76-.3c-4.68-1.84-4.77-1.87-16.57-3.5-7.99-1.1-10.69-1.45-14.2-1.49h-1.28c-2.67,0-5.91,.11-9.78,.99-4.88,1.11-9.55,3.18-13.88,6.15-.77,1.15-1.05,2.21-.84,3.13,.15,.66,.45,1.43,1.99,2.26l-4.8,8.91c-3.77-2.03-6.14-5.01-7.04-8.85-.86-3.66-.05-7.6,2.28-11.09l1.08-1.61,1.6-1.1c5.39-3.7,11.23-6.28,17.36-7.67,4.84-1.1,8.8-1.25,12.02-1.25h1.37c4.13,.05,7.01,.42,15.49,1.59,12.08,1.66,13.14,1.84,18.89,4.1l.76,.3c2.34,.92,4.52,2.17,6.47,3.72,1.85,1.46,3.48,3.19,4.86,5.13,1.84,2.59,4.12,5.8,3.71,10.39-.29,3.28-2.09,7.82-9.04,10.8Z"/>
                <path id="Rope_1" data-name="Rope 1" d="M1172.51,399.28l-3.88-9.35c.9-.38,3.01-1.37,3.11-2.47,.07-.83-.66-1.92-1.87-3.63-.82-1.16-1.8-2.19-2.9-3.06-1.16-.92-2.47-1.67-3.87-2.22l-.76-.3c-4.68-1.84-4.77-1.87-16.57-3.5-7.99-1.1-10.69-1.45-14.2-1.49h-1.28c-2.67,0-5.91,.11-9.78,.99-4.88,1.11-9.55,3.18-13.88,6.15-.77,1.15-1.05,2.21-.84,3.13,.18,.75,.54,1.63,2.61,2.56l-4.16,9.23c-4.51-2.03-7.3-5.22-8.3-9.48-.86-3.66-.05-7.6,2.28-11.09l1.08-1.61,1.6-1.1c5.39-3.7,11.23-6.28,17.36-7.67,4.84-1.1,8.8-1.25,12.02-1.25h1.37c4.13,.05,7.01,.42,15.49,1.59,12.08,1.66,13.14,1.84,18.89,4.1l.76,.3c2.34,.92,4.52,2.17,6.47,3.72,1.85,1.46,3.48,3.19,4.86,5.13,1.84,2.59,4.12,5.8,3.71,10.39-.3,3.34-2.15,7.94-9.31,10.92Z"/>
                <path id="Rope_3-2" data-name="Rope 3" d="M1173.25,376.66c.07-.83-.66-1.92-1.87-3.63-.82-1.16-1.8-2.19-2.9-3.06-1.16-.92-2.47-1.67-3.87-2.22l-.76-.3c-4.68-1.84-4.77-1.87-16.57-3.5-7.99-1.1-10.69-1.45-14.2-1.49h-1.28c-2.67,0-5.91,.11-9.78,.99-4.88,1.11-9.55,3.18-13.88,6.15-.77,1.15-1.05,2.21-.84,3.13l-2.99,10.91-1.55-.81c-2.77-1.96-4.56-4.58-5.31-7.79-.86-3.66-.05-7.6,2.28-11.08l1.08-1.61,1.6-1.1c5.39-3.7,11.23-6.28,17.36-7.67,4.84-1.1,8.8-1.25,12.02-1.25h1.37c4.13,.05,7.01,.42,15.49,1.59,12.08,1.66,13.14,1.84,18.89,4.1l.76,.3c2.34,.92,4.52,2.17,6.47,3.72,1.85,1.46,3.48,3.19,4.86,5.13,1.84,2.59,4.12,5.8,3.71,10.39-.29,3.28-2.09,7.81-9.02,10.79l-2.74,1.05,1.67-12.74Z"/>
                <path id="Rope_2-2" data-name="Rope 2" d="M1175.71,377.85l-3.99-9.31c.85-.37,2.85-1.33,2.95-2.39,.07-.83-.66-1.92-1.87-3.63-.82-1.16-1.8-2.19-2.9-3.06-1.16-.92-2.47-1.67-3.87-2.22l-.76-.3c-4.68-1.84-4.77-1.87-16.57-3.5-7.99-1.1-10.69-1.45-14.2-1.49h-1.28c-2.67,0-5.91,.11-9.78,.99-4.88,1.11-9.55,3.18-13.88,6.15-.77,1.15-1.05,2.21-.84,3.13,.15,.66,.45,1.43,1.99,2.26l-4.8,8.91c-3.77-2.03-6.14-5.01-7.04-8.85-.86-3.66-.05-7.6,2.28-11.09l1.08-1.61,1.6-1.1c5.39-3.7,11.23-6.28,17.36-7.67,4.84-1.1,8.8-1.25,12.02-1.25h1.37c4.13,.05,7.01,.42,15.49,1.59,12.08,1.66,13.14,1.84,18.89,4.1l.76,.3c2.34,.92,4.52,2.17,6.47,3.72,1.85,1.46,3.48,3.19,4.86,5.13,1.84,2.59,4.12,5.8,3.71,10.39-.29,3.28-2.09,7.82-9.04,10.8Z"/>
                <path id="Rope_1-2" data-name="Rope 1" d="M1177.13,367.33l-3.88-9.35c.9-.38,3.01-1.37,3.11-2.47,.07-.83-.66-1.92-1.87-3.63-.82-1.16-1.8-2.19-2.9-3.06-1.16-.92-2.47-1.67-3.87-2.22l-.76-.3c-4.68-1.84-4.77-1.87-16.57-3.5-7.99-1.1-10.69-1.45-14.2-1.49h-1.28c-2.67,0-5.91,.11-9.78,.99-4.88,1.11-9.55,3.18-13.88,6.15-.77,1.15-1.05,2.21-.84,3.13,.18,.75,.54,1.63,2.61,2.56l-4.16,9.23c-4.51-2.03-7.3-5.22-8.3-9.48-.86-3.66-.05-7.6,2.28-11.09l1.08-1.61,1.6-1.1c5.39-3.7,11.23-6.28,17.36-7.67,4.84-1.1,8.8-1.25,12.02-1.25h1.37c4.13,.05,7.01,.42,15.49,1.59,12.08,1.66,13.14,1.84,18.89,4.1l.76,.3c2.34,.92,4.52,2.17,6.47,3.72,1.85,1.46,3.48,3.19,4.86,5.13,1.84,2.59,4.12,5.8,3.71,10.39-.3,3.34-2.15,7.94-9.31,10.92Z"/>
                <path id="S_Ropes" data-name="S Ropes" d="M1125.13,342.32c-.1,.03-.19,.05-.29,.08,2.13-.32,4.05-.46,5.8-.52-.73,.39-7.53,4.38-1.06,10.19-1.65,.11-3.46,.33-5.43,.75,2.09-.29,3.99-.41,5.7-.44-.43,.23-7.71,4.25-1.14,10.18-1.97,.1-4.2,.35-6.68,.92-.82,.19-1.63,.39-2.43,.65,2.85-.57,5.37-.81,7.59-.91-.92,.52-7.39,4.48-.96,10.2-1.72,.13-3.63,.38-5.71,.86-.1,.03-.19,.05-.29,.08,2.13-.32,4.05-.46,5.8-.52-.73,.39-7.53,4.38-1.06,10.19-1.65,.11-3.46,.33-5.43,.75,2.09-.29,3.99-.41,5.7-.44-.43,.23-7.71,4.25-1.14,10.18-1.97,.1-4.2,.35-6.68,.92-4.89,1.1-9.56,3.18-13.88,6.14-.77,1.16-1.05,2.21-.84,3.14l-2.99,10.91-1.56-.81c-2.77-1.96-4.56-4.58-5.32-7.78-.77-3.27-.2-6.75,1.58-9.92-.05-.19-.1-.38-.15-.58-.81-3.39-.18-7.01,1.78-10.29-.04-.11-.08-.24-.1-.35-.78-3.33-.19-6.87,1.7-10.13-.08-.22-.14-.44-.19-.67-.77-3.27-.2-6.75,1.58-9.92-.05-.19-.1-.38-.15-.58-.81-3.39-.18-7.01,1.78-10.29-.04-.11-.08-.24-.1-.35-.86-3.66-.05-7.59,2.29-11.09l1.08-1.61,1.59-1.1c5.39-3.7,11.24-6.28,17.36-7.67,3.39-.77,6.35-1.08,8.92-1.19-.92,.52-7.39,4.48-.96,10.2-1.72,.13-3.63,.38-5.71,.86Z"/>
              </g>
              <g>
                <path id="Rope_3-3" data-name="Rope 3" class="cls-7" d="M1168.63,408.61c.07-.83-.66-1.92-1.87-3.63-.82-1.16-1.8-2.19-2.9-3.06-1.16-.92-2.47-1.67-3.87-2.22l-.76-.3c-4.68-1.84-4.77-1.87-16.57-3.5-7.99-1.1-10.69-1.45-14.2-1.49h-1.28c-2.67,0-5.91,.11-9.78,.99-4.88,1.11-9.55,3.18-13.88,6.15-.77,1.15-1.05,2.21-.84,3.13l-2.99,10.91-1.55-.81c-2.77-1.96-4.56-4.58-5.31-7.79-.86-3.66-.05-7.6,2.28-11.08l1.08-1.61,1.6-1.1c5.39-3.7,11.23-6.28,17.36-7.67,4.84-1.1,8.8-1.25,12.02-1.25h1.37c4.13,.05,7.01,.42,15.49,1.59,12.08,1.66,13.14,1.84,18.89,4.1l.76,.3c2.34,.92,4.52,2.17,6.47,3.72,1.85,1.46,3.48,3.19,4.86,5.13,1.84,2.59,4.12,5.8,3.71,10.39-.29,3.28-2.09,7.81-9.02,10.79l-2.74,1.05,1.67-12.74Z"/>
                <path id="Rope_2-3" data-name="Rope 2" class="cls-7" d="M1171.09,409.8l-3.99-9.31c.85-.37,2.85-1.33,2.95-2.39,.07-.83-.66-1.92-1.87-3.63-.82-1.16-1.8-2.19-2.9-3.06-1.16-.92-2.47-1.67-3.87-2.22l-.76-.3c-4.68-1.84-4.77-1.87-16.57-3.5-7.99-1.1-10.69-1.45-14.2-1.49h-1.28c-2.67,0-5.91,.11-9.78,.99-4.88,1.11-9.55,3.18-13.88,6.15-.77,1.15-1.05,2.21-.84,3.13,.15,.66,.45,1.43,1.99,2.26l-4.8,8.91c-3.77-2.03-6.14-5.01-7.04-8.85-.86-3.66-.05-7.6,2.28-11.09l1.08-1.61,1.6-1.1c5.39-3.7,11.23-6.28,17.36-7.67,4.84-1.1,8.8-1.25,12.02-1.25h1.37c4.13,.05,7.01,.42,15.49,1.59,12.08,1.66,13.14,1.84,18.89,4.1l.76,.3c2.34,.92,4.52,2.17,6.47,3.72,1.85,1.46,3.48,3.19,4.86,5.13,1.84,2.59,4.12,5.8,3.71,10.39-.29,3.28-2.09,7.82-9.04,10.8Z"/>
                <path id="Rope_1-3" data-name="Rope 1" class="cls-7" d="M1172.51,399.28l-3.88-9.35c.9-.38,3.01-1.37,3.11-2.47,.07-.83-.66-1.92-1.87-3.63-.82-1.16-1.8-2.19-2.9-3.06-1.16-.92-2.47-1.67-3.87-2.22l-.76-.3c-4.68-1.84-4.77-1.87-16.57-3.5-7.99-1.1-10.69-1.45-14.2-1.49h-1.28c-2.67,0-5.91,.11-9.78,.99-4.88,1.11-9.55,3.18-13.88,6.15-.77,1.15-1.05,2.21-.84,3.13,.18,.75,.54,1.63,2.61,2.56l-4.16,9.23c-4.51-2.03-7.3-5.22-8.3-9.48-.86-3.66-.05-7.6,2.28-11.09l1.08-1.61,1.6-1.1c5.39-3.7,11.23-6.28,17.36-7.67,4.84-1.1,8.8-1.25,12.02-1.25h1.37c4.13,.05,7.01,.42,15.49,1.59,12.08,1.66,13.14,1.84,18.89,4.1l.76,.3c2.34,.92,4.52,2.17,6.47,3.72,1.85,1.46,3.48,3.19,4.86,5.13,1.84,2.59,4.12,5.8,3.71,10.39-.3,3.34-2.15,7.94-9.31,10.92Z"/>
                <path id="Rope_3-4" data-name="Rope 3" class="cls-7" d="M1173.25,376.66c.07-.83-.66-1.92-1.87-3.63-.82-1.16-1.8-2.19-2.9-3.06-1.16-.92-2.47-1.67-3.87-2.22l-.76-.3c-4.68-1.84-4.77-1.87-16.57-3.5-7.99-1.1-10.69-1.45-14.2-1.49h-1.28c-2.67,0-5.91,.11-9.78,.99-4.88,1.11-9.55,3.18-13.88,6.15-.77,1.15-1.05,2.21-.84,3.13l-2.99,10.91-1.55-.81c-2.77-1.96-4.56-4.58-5.31-7.79-.86-3.66-.05-7.6,2.28-11.08l1.08-1.61,1.6-1.1c5.39-3.7,11.23-6.28,17.36-7.67,4.84-1.1,8.8-1.25,12.02-1.25h1.37c4.13,.05,7.01,.42,15.49,1.59,12.08,1.66,13.14,1.84,18.89,4.1l.76,.3c2.34,.92,4.52,2.17,6.47,3.72,1.85,1.46,3.48,3.19,4.86,5.13,1.84,2.59,4.12,5.8,3.71,10.39-.29,3.28-2.09,7.81-9.02,10.79l-2.74,1.05,1.67-12.74Z"/>
                <path id="Rope_2-4" data-name="Rope 2" class="cls-7" d="M1175.71,377.85l-3.99-9.31c.85-.37,2.85-1.33,2.95-2.39,.07-.83-.66-1.92-1.87-3.63-.82-1.16-1.8-2.19-2.9-3.06-1.16-.92-2.47-1.67-3.87-2.22l-.76-.3c-4.68-1.84-4.77-1.87-16.57-3.5-7.99-1.1-10.69-1.45-14.2-1.49h-1.28c-2.67,0-5.91,.11-9.78,.99-4.88,1.11-9.55,3.18-13.88,6.15-.77,1.15-1.05,2.21-.84,3.13,.15,.66,.45,1.43,1.99,2.26l-4.8,8.91c-3.77-2.03-6.14-5.01-7.04-8.85-.86-3.66-.05-7.6,2.28-11.09l1.08-1.61,1.6-1.1c5.39-3.7,11.23-6.28,17.36-7.67,4.84-1.1,8.8-1.25,12.02-1.25h1.37c4.13,.05,7.01,.42,15.49,1.59,12.08,1.66,13.14,1.84,18.89,4.1l.76,.3c2.34,.92,4.52,2.17,6.47,3.72,1.85,1.46,3.48,3.19,4.86,5.13,1.84,2.59,4.12,5.8,3.71,10.39-.29,3.28-2.09,7.82-9.04,10.8Z"/>
                <path id="Rope_1-4" data-name="Rope 1" class="cls-7" d="M1177.13,367.33l-3.88-9.35c.9-.38,3.01-1.37,3.11-2.47,.07-.83-.66-1.92-1.87-3.63-.82-1.16-1.8-2.19-2.9-3.06-1.16-.92-2.47-1.67-3.87-2.22l-.76-.3c-4.68-1.84-4.77-1.87-16.57-3.5-7.99-1.1-10.69-1.45-14.2-1.49h-1.28c-2.67,0-5.91,.11-9.78,.99-4.88,1.11-9.55,3.18-13.88,6.15-.77,1.15-1.05,2.21-.84,3.13,.18,.75,.54,1.63,2.61,2.56l-4.16,9.23c-4.51-2.03-7.3-5.22-8.3-9.48-.86-3.66-.05-7.6,2.28-11.09l1.08-1.61,1.6-1.1c5.39-3.7,11.23-6.28,17.36-7.67,4.84-1.1,8.8-1.25,12.02-1.25h1.37c4.13,.05,7.01,.42,15.49,1.59,12.08,1.66,13.14,1.84,18.89,4.1l.76,.3c2.34,.92,4.52,2.17,6.47,3.72,1.85,1.46,3.48,3.19,4.86,5.13,1.84,2.59,4.12,5.8,3.71,10.39-.3,3.34-2.15,7.94-9.31,10.92Z"/>
                <path id="S_Ropes-2" data-name="S Ropes" class="cls-6" d="M1125.13,342.32c-.1,.03-.19,.05-.29,.08,2.13-.32,4.05-.46,5.8-.52-.73,.39-7.53,4.38-1.06,10.19-1.65,.11-3.46,.33-5.43,.75,2.09-.29,3.99-.41,5.7-.44-.43,.23-7.71,4.25-1.14,10.18-1.97,.1-4.2,.35-6.68,.92-.82,.19-1.63,.39-2.43,.65,2.85-.57,5.37-.81,7.59-.91-.92,.52-7.39,4.48-.96,10.2-1.72,.13-3.63,.38-5.71,.86-.1,.03-.19,.05-.29,.08,2.13-.32,4.05-.46,5.8-.52-.73,.39-7.53,4.38-1.06,10.19-1.65,.11-3.46,.33-5.43,.75,2.09-.29,3.99-.41,5.7-.44-.43,.23-7.71,4.25-1.14,10.18-1.97,.1-4.2,.35-6.68,.92-4.89,1.1-9.56,3.18-13.88,6.14-.77,1.16-1.05,2.21-.84,3.14l-2.99,10.91-1.56-.81c-2.77-1.96-4.56-4.58-5.32-7.78-.77-3.27-.2-6.75,1.58-9.92-.05-.19-.1-.38-.15-.58-.81-3.39-.18-7.01,1.78-10.29-.04-.11-.08-.24-.1-.35-.78-3.33-.19-6.87,1.7-10.13-.08-.22-.14-.44-.19-.67-.77-3.27-.2-6.75,1.58-9.92-.05-.19-.1-.38-.15-.58-.81-3.39-.18-7.01,1.78-10.29-.04-.11-.08-.24-.1-.35-.86-3.66-.05-7.59,2.29-11.09l1.08-1.61,1.59-1.1c5.39-3.7,11.24-6.28,17.36-7.67,3.39-.77,6.35-1.08,8.92-1.19-.92,.52-7.39,4.48-.96,10.2-1.72,.13-3.63,.38-5.71,.86Z"/>
              </g>
            </g>
          </g>
        </g>
      </g>
    </g>
  </g>
</svg>