<?xml version="1.0" encoding="UTF-8"?>
<svg xmlns="http://www.w3.org/2000/svg" viewBox="0 0 1950 1950">
  <defs>
    <style>
      .cls-1 {
        mix-blend-mode: luminosity;
        opacity: .39;
      }

      .cls-2 {
        fill: #fff;
      }

      .cls-3 {
        fill: #888a8e;
      }

      .cls-4 {
        isolation: isolate;
      }

      .cls-5 {
        fill: #333;
      }

      .cls-6 {
        fill: #757575;
      }

      .cls-7 {
        fill: none;
        stroke: #3f3f3f;
        stroke-miterlimit: 10;
        stroke-width: 8px;
      }

      .cls-8 {
        fill: #7f7f7f;
      }

      .cls-9 {
        fill: red;
      }
    </style>
  </defs>
  <g class="cls-4">
    <g id="BG">
      <g id="RBG_Light" data-name="RBG Light">
        <path class="cls-2" d="M975,1946c-131.09,0-258.25-25.67-377.96-76.3-115.63-48.91-219.47-118.92-308.65-208.09-89.18-89.18-159.19-193.02-208.1-308.64C29.67,1233.25,4,1106.09,4,975s25.67-258.25,76.3-377.96c48.91-115.63,118.92-219.47,208.1-308.65s193.02-159.19,308.65-208.1C716.75,29.67,843.91,4,975,4s258.25,25.67,377.96,76.3c115.62,48.91,219.47,118.92,308.64,208.1,89.18,89.18,159.19,193.02,208.09,308.65,50.63,119.71,76.3,246.87,76.3,377.96s-25.67,258.25-76.3,377.96c-48.91,115.62-118.92,219.47-208.09,308.64-89.18,89.18-193.02,159.19-308.64,208.09-119.71,50.63-246.87,76.3-377.96,76.3Z"/>
        <path class="cls-5" d="M975,8c65.61,0,131.19,6.61,194.89,19.65,62.08,12.7,123.15,31.66,181.51,56.34,57.3,24.23,112.56,54.23,164.26,89.16,51.21,34.59,99.36,74.32,143.12,118.08,43.76,43.76,83.49,91.91,118.08,143.12,34.92,51.7,64.92,106.96,89.16,164.26,24.68,58.35,43.64,119.42,56.34,181.51,13.04,63.71,19.65,129.28,19.65,194.89s-6.61,131.19-19.65,194.89c-12.7,62.08-31.66,123.15-56.34,181.51-24.23,57.3-54.23,112.56-89.16,164.26-34.59,51.21-74.32,99.36-118.08,143.12-43.76,43.76-91.91,83.49-143.12,118.08-51.7,34.92-106.96,64.92-164.26,89.16-58.35,24.68-119.42,43.64-181.51,56.34-63.71,13.04-129.28,19.65-194.89,19.65s-131.19-6.61-194.89-19.65c-62.08-12.7-123.15-31.66-181.51-56.34-57.3-24.23-112.56-54.23-164.26-89.16-51.21-34.59-99.36-74.32-143.12-118.08-43.76-43.76-83.49-91.91-118.08-143.12-34.92-51.7-64.92-106.96-89.16-164.26-24.68-58.35-43.64-119.42-56.34-181.51-13.04-63.71-19.65-129.28-19.65-194.89s6.61-131.19,19.65-194.89c12.7-62.08,31.66-123.15,56.34-181.51,24.23-57.3,54.23-112.56,89.16-164.26,34.59-51.21,74.32-99.36,118.08-143.12,43.76-43.76,91.91-83.49,143.12-118.08,51.7-34.92,106.96-64.92,164.26-89.16,58.35-24.68,119.42-43.64,181.51-56.34,63.71-13.04,129.28-19.65,194.89-19.65m0-8C436.52,0,0,436.52,0,975s436.52,975,975,975,975-436.52,975-975S1513.48,0,975,0h0Z"/>
      </g>
    </g>
    <g id="Drawing">
      <g id="System">
        <polygon id="Belt_2_Bottom" data-name="Belt 2 Bottom" class="cls-8" points="1030.29 1373.77 997.31 1815.33 1104.81 1796.65 1083.52 1332.15 1030.29 1373.77"/>
        <polygon id="S_Belt_2_Bottom" data-name="S Belt 2 Bottom" class="cls-1" points="1030.29 1373.77 997.31 1815.33 1104.81 1796.65 1083.52 1332.15 1030.29 1373.77"/>
        <polygon id="C_Belt_2_Bottom" data-name="C Belt 2 Bottom" class="cls-7" points="1030.29 1373.77 997.31 1815.33 1104.81 1796.65 1083.52 1332.15 1030.29 1373.77"/>
        <polygon id="Belt_1_Bottom" data-name="Belt 1 Bottom" class="cls-8" points="840.51 1352.39 848.35 1806.6 748.6 1787.45 787.29 1310.78 840.51 1352.39"/>
        <polygon id="S_Belt_1_Bottom" data-name="S Belt 1 Bottom" class="cls-1" points="840.51 1352.39 848.35 1806.6 748.6 1787.45 787.29 1310.78 840.51 1352.39"/>
        <polygon id="C_Belt_1_Bottom" data-name="C Belt 1 Bottom" class="cls-7" points="840.51 1352.39 848.35 1806.6 748.6 1787.45 787.29 1310.78 840.51 1352.39"/>
        <path id="Carabiner" class="cls-3" d="M995.45,1445.61l-189.57-35.29c-23.47-4.37-43.96-18.63-56.21-39.13l-45.39-75.96c-13.1-21.92-15.44-48.19-6.42-72.08l224.82-595.47c14.26-37.76,53.41-59.81,93.09-52.42l84.33,15.7c39.68,7.39,68.28,42.04,67.99,82.41l-4.5,636.48c-.18,25.53-11.82,49.21-31.92,64.95l-69.68,54.54c-18.8,14.72-43.05,20.65-66.53,16.28Zm8.73-808.14c-9.51-1.77-18.89,3.51-22.3,12.56l-224.82,595.47c-2.16,5.72-1.6,12.02,1.54,17.27l45.39,75.96c2.93,4.91,7.84,8.33,13.47,9.38l189.57,35.29c5.63,1.05,11.43-.37,15.94-3.9l69.68-54.54c4.82-3.77,7.61-9.44,7.65-15.56l4.5-636.48c.07-9.67-6.78-17.97-16.29-19.74l-84.33-15.7Z"/>
        <path id="S_Carabiner" data-name="S Carabiner" class="cls-1" d="M976.61,577.35c-.72,.21-1.47,.45-2.25,.71-.3,.1-1.14,.38-2.23,.77-.75,.27-1.48,.54-2.21,.84-.52,.2-1.03,.42-1.54,.63-.27,.1-.52,.22-.77,.33-.7,.29-1.38,.59-2.06,.91-.7,.32-1.38,.65-2.06,.99t-.03,.01c-.08,.04-.16,.08-.24,.13-.62,.32-1.23,.62-1.84,.95-.72,.38-1.43,.77-2.14,1.19-.27,.14-.52,.29-.77,.44-.27,.15-.52,.3-.77,.46-.27,.15-.52,.32-.78,.48-.54,.33-1.08,.67-1.61,1.01-.48,.3-.95,.62-1.42,.94-.08,.05-.15,.1-.23,.15-.24,.16-.48,.33-.71,.49-.52,.35-1.03,.71-1.53,1.09-.57,.42-1.14,.85-1.71,1.29-.16,.11-.33,.24-.48,.38-.52,.38-1.03,.8-1.53,1.22-.43,.34-.85,.7-1.27,1.06-.13,.1-.24,.2-.35,.3-.23,.19-.46,.39-.67,.58l-.08,.06-1,.91-.06,.05c-1.22,1.11-2.39,2.25-3.53,3.44-.47,.48-.92,.96-1.38,1.46-.61,.66-1.2,1.33-1.8,2.01-.56,.65-1.1,1.3-1.65,1.96-.03,.04-.05,.06-.08,.1-.46,.56-.9,1.11-1.33,1.7-.39,.49-.76,1-1.14,1.52-.1,.13-.2,.27-.29,.41-.47,.65-.94,1.3-1.38,1.97-.46,.66-.9,1.34-1.33,2.03-.43,.67-.86,1.37-1.28,2.06-.46,.76-.89,1.53-1.33,2.3-.04,.06-.08,.14-.11,.2-.32,.58-.62,1.16-.92,1.76-.03,.04-.05,.08-.06,.11-.34,.67-.68,1.34-1.01,2.03-.03,.04-.04,.08-.06,.13-.03,.05-.05,.11-.08,.16-.25,.53-.49,1.06-.75,1.61,0,.03-.01,.04-.03,.06-.1,.2-.19,.39-.27,.59-.28,.61-.54,1.22-.78,1.84h-.01s-.01,.04-.01,.05c-.34,.81-.66,1.63-.97,2.46l-224.82,595.46c-9.02,23.9-6.68,50.17,6.42,72.09l9.88,16.53,.37,.62,35.13,58.8c4.77,7.99,10.78,15.02,17.74,20.88,.27,.23,.53,.46,.8,.67,10.75,8.86,23.68,14.97,37.67,17.58l178.32,33.19,11.26,2.1c4.68,.86,9.4,1.33,14.1,1.39,.33,.01,.66,.01,.99,.01,18.49,.03,36.64-6.1,51.44-17.68l41.15-32.21-20.73-23.21c.19-.15,.38-.32,.57-.47,19.09-15.71,30.08-38.77,30.26-63.6l4.51-636.48c.28-40.36-28.31-75.01-67.99-82.41l-33.41-6.21c.35-1.28,.71-2.57,1.09-3.88l-28.37-4.79c-1.05-.11-2.18-.18-3.38-.17-3.6,.02-6.67,.69-9.05,1.45Zm-246.21,722.53c-7.39-12.37-14.77-24.74-22.16-37.11-3.14-5.25-3.7-11.54-1.53-17.26l224.82-595.47c4.52-12.9,4.89-14.34,22.3-12.57l20.25,3.77c.13,.67,.28,1.34,.44,2,.33,1.49,.72,2.96,1.16,4.4,.2,.66,.41,1.32,.62,1.96,.03,.09,.05,.18,.09,.27,.16,.48,.33,.96,.52,1.44,.08,.25,.16,.49,.27,.73,.03,.06,.05,.11,.06,.18,.23,.59,.47,1.18,.72,1.76,.28,.67,.58,1.33,.89,1.99,.13,.27,.27,.58,.43,.92l2.59-6.86c.11-.32,.24-.62,.38-.92,.13-.3,.27-.61,.42-.9,.14-.3,.29-.58,.46-.87,.15-.27,.3-.53,.46-.78,.2-.32,.41-.62,.62-.92,.16-.24,.34-.48,.52-.72,.39-.51,.8-.99,1.24-1.46,.23-.25,.47-.49,.72-.73,.24-.23,.49-.46,.75-.68,.01-.03,.03-.04,.05-.05,.24-.22,.49-.42,.76-.62,.25-.2,.52-.41,.78-.58,.27-.19,.56-.38,.84-.57,.22-.14,.43-.27,.65-.38,.19-.11,.38-.23,.57-.33,.18-.09,.35-.19,.54-.28,.29-.14,.57-.28,.86-.41,.03-.01,.05-.03,.06-.03,.3-.14,.62-.27,.94-.38,.28-.1,.54-.2,.84-.3,.01,0,.04-.01,.05-.01,.08-.03,.14-.04,.2-.06,.16-.05,.33-.1,.48-.14,.13-.04,.25-.08,.37-.1,.33-.09,.66-.18,1-.24,.29-.06,.59-.13,.89-.16,.04-.01,.06-.03,.1-.03,.03,0,.05,0,.09-.01,.32-.05,.63-.09,.95-.11,1.87-.2,3.81-.14,5.75,.23l8.71,1.62,75.62,14.07c9.51,1.77,16.35,10.07,16.29,19.76l-4.51,636.48c-.05,6.11-2.84,11.78-7.66,15.55l-31.17,24.41-.58,.46-37.92,29.68c-4.51,3.52-10.31,4.94-15.93,3.9l-18.53-3.44h0s-1.08-.22-1.08-.22l-12.23-2.27-2.59,2.02c-4.51,3.52-10.31,4.94-15.93,3.9l-169.7-31.59-1-.19-.22-3.53c-.08-1.29-.65-2.51-1.59-3.39l-2.27-42.92c-6.92-1.75-12.82-2.73-17.17-3.3-8.27-1.09-16.08-2.07-25.92-.5-3.59,.57-6.49,1.34-8.41,1.9Z"/>
        <path id="C_Carabiner" data-name="C Carabiner" class="cls-7" d="M995.45,1445.61l-189.57-35.29c-23.47-4.37-43.96-18.63-56.21-39.13l-45.39-75.96c-13.1-21.92-15.44-48.19-6.42-72.08l224.82-595.47c14.26-37.76,53.41-59.81,93.09-52.42l84.33,15.7c39.68,7.39,68.28,42.04,67.99,82.41l-4.5,636.48c-.18,25.53-11.82,49.21-31.92,64.95l-69.68,54.54c-18.8,14.72-43.05,20.65-66.53,16.28Zm8.73-808.14c-9.51-1.77-18.89,3.51-22.3,12.56l-224.82,595.47c-2.16,5.72-1.6,12.02,1.54,17.27l45.39,75.96c2.93,4.91,7.84,8.33,13.47,9.38l189.57,35.29c5.63,1.05,11.43-.37,15.94-3.9l69.68-54.54c4.82-3.77,7.61-9.44,7.65-15.56l4.5-636.48c.07-9.67-6.78-17.97-16.29-19.74l-84.33-15.7Z"/>
        <rect id="Lock" class="cls-9" x="721.24" y="1038.41" width="98.72" height="163.27" rx="14.2" ry="14.2" transform="translate(439.95 -198.67) rotate(20.45)"/>
        <path id="S_Lock" data-name="S Lock" class="cls-1" d="M779.11,1042.8l-25.65-9.57c2.73-.75,6.63-1.55,11.44-.86,3.26,.48,6.19,1.67,8.17,2.56h2.91l-6.27-2.35-3.53-1.31c-4.91-1.83-10.18-.77-13.96,2.32,0,0,0,0,0,0-1.89,1.53-3.41,3.57-4.32,6.02l-47.12,126.37c-2.54,6.81,.48,14.33,6.78,17.58h.01l21.84,8.25c3.13,1.13,8.13,3.03,13.14-10.36l44.89-120.39c2.74-7.35-.99-15.52-8.34-18.26Z"/>
        <rect id="C_Lock" data-name="C Lock" class="cls-7" x="721.24" y="1038.41" width="98.72" height="163.27" rx="14.2" ry="14.2" transform="translate(439.95 -198.67) rotate(20.45)"/>
        <path id="Belt_2_Top" data-name="Belt 2 Top" class="cls-8" d="M1088.73,1328.02l-4.86-1.56c-1.25-.4-2.62-.16-3.67,.64l-47.67,36.53c-.99,.76-1.57,1.94-1.57,3.19l-.63,6.92,5.06-3.96h0c3.28,3.48,5.8,7.62,7.38,12.14l.78,2.23,161.03,493.93,274.7-120.66-374.55-419.51-.03-.02c-4.68-4.23-10.09-7.57-15.98-9.85h0Z"/>
        <path id="C_Belt_2_Top" data-name="C Belt 2 Top" class="cls-7" d="M1088.73,1328.02l-4.86-1.56c-1.25-.4-2.62-.16-3.67,.64l-47.67,36.53c-.99,.76-1.57,1.94-1.57,3.19l-.63,6.92,5.06-3.96h0c3.28,3.48,5.8,7.62,7.38,12.14l.78,2.23,161.03,493.93,274.7-120.66-374.55-419.51-.03-.02c-4.68-4.23-10.09-7.57-15.98-9.85h0Z"/>
        <path id="Belt_1_Top" data-name="Belt 1 Top" class="cls-8" d="M781.91,1301.77h0c-5.87,3.36-11.19,7.59-15.77,12.57l-.17,.19-352.35,387.22,278.85,169.43,135.02-499.8,.54-1.61c2.16-6.47,5.39-12.53,9.57-17.92h0s2.93,.55,2.93,.55l-.26-4.31c-.08-1.29-.65-2.5-1.6-3.39l-47.88-44.59c-1.5-1.39-3.75-1.6-5.47-.5l-3.39,2.17Z"/>
        <path id="C_Belt_1_Top" data-name="C Belt 1 Top" class="cls-7" d="M781.91,1301.77h0c-5.87,3.36-11.19,7.59-15.77,12.57l-.17,.19-352.35,387.22,278.85,169.43,135.02-499.8,.54-1.61c2.16-6.47,5.39-12.53,9.57-17.92h0s2.93,.55,2.93,.55l-.26-4.31c-.08-1.29-.65-2.5-1.6-3.39l-47.88-44.59c-1.5-1.39-3.75-1.6-5.47-.5l-3.39,2.17Z"/>
        <g id="Rope">
          <path id="Rope-2" data-name="Rope" class="cls-6" d="M1210.68,61.44l-54.03,258.37c-13.6,81.46-21.41,159.6-23.21,232.25l-.06,2.66c-.32,13.32-.74,30.7-2.94,48.38-8.98-5.87-19.22-10.08-30.33-12.15l-6.45-1.2c1.22-13.31,1.54-26.22,1.77-35.94l.07-2.69c.88-35.67,3.18-72.61,6.86-110.56-11.4,37.74-22.01,71.07-38.65,113.66l-.06,.15,.06-.15-.06,.15c-14.98,38.3-20.07,71.02-13.29,85.38,.68,1.44,3.63,6.75,7.36,7.67l30.82,5.74c8.62,1.6,15.04,8.58,16.11,17.08-4.25,4.19-9.13,7.62-14.76,10.04-9.69,4.16-18.59,5.59-26.24,5.59-15.35,0-25.69-5.75-27.3-6.7-13.01-7.71-18.51-19.37-20.32-23.2-2.51-5.32-4.2-11.13-5.23-17.28l5.23,17.28c-14.86-31.48-1.53-80.14,12.26-115.42l.06-.15-.06,.15,.06-.15c19.31-49.41,30.39-86.42,44.41-133.27,17.91-59.87,23.79-94.81,27.18-121.1,1.87-14.48,3.27-29.17,4.16-43.66,0,0,0,0,0,0h0c10.14-3.09,20.27-2.62,29.54,1.75l.33,.08,38.77-186.8,1.62-.33c12.27-2.47,25-.94,36.34,4.36h0Z"/>
          <path id="S_Rope_2" data-name="S Rope 2" class="cls-1" d="M1187.66,55.96l-29.9,145.04-33.5,179.8-6.53,65.55-6.77,147.39c-3.51-1.16-7.13-2.1-10.86-2.79l-6.46-1.2c1.23-13.32,1.54-26.22,1.78-35.94l.06-2.69c.61-24.52,1.89-49.65,3.82-75.28l.05-.53c.86-11.48,1.85-23.06,2.99-34.75l28.42-136.78,6.81-56.61-3.63-2.97,38.77-186.79,1.63-.33c4.41-.89,8.88-1.26,13.32-1.12Z"/>
          <path id="S_Rope_1" data-name="S Rope 1" class="cls-1" d="M1086.39,681.67c-.07,.03-.13,.05-.2,.08-4.78,1.9-9.79,3.06-14.76,3.62-.13,.02-.26,.04-.39,.05-2.58,.31-5.05,.45-7.41,.45-5.51,0-10.38-.74-14.42-1.74-.3-.07-.6-.14-.9-.22-.22-.05-.43-.11-.64-.17-4.12-1.06-7.75-2.49-10.6-4.14-.02-.01-.03-.01-.05-.03-.02-.02-.05-.03-.07-.04-.14-.07-.27-.15-.4-.23-.08-.04-.15-.08-.23-.13-5.02-2.98-8.93-6.55-11.93-10.03-4.7-5.28-7.78-10.98-9.92-16.72-.06-.16-.12-.32-.18-.48,0-.01-.01-.03-.02-.05-.24-.64-.48-1.29-.7-1.94-.02-.06-.04-.11-.06-.16-.04-.12-.08-.24-.12-.37-.19-.59-.38-1.18-.56-1.78-.22-.72-.42-1.45-.61-2.18-.2-.74-.38-1.48-.55-2.22-.23-1-.43-2.01-.62-3.03-.08-.42-.16-.82-.23-1.24-.01-.05-.02-.11-.03-.16-.01-.02-.01-.04-.01-.06v-.05s-.01-.01-.01-.01c-.09-.54-.18-1.09-.25-1.64,0-.01,0-.03-.01-.04,0-.03,0-.05-.01-.07v-.02s-.01-.1-.02-.15c0-.02-.01-.04-.01-.06-.01-.08-.03-.17-.03-.25-.07-.44-.13-.87-.18-1.31-.05-.4-.1-.81-.14-1.22-.02-.14-.04-.29-.05-.43-.02-.15-.03-.3-.04-.44-.05-.46-.1-.92-.14-1.39-.01-.03-.01-.07-.01-.1-.03-.35-.06-.7-.08-1.05-.03-.34-.05-.68-.07-1.02-.02-.33-.05-.7-.06-1.04-.03-.51-.06-1.02-.08-1.52-.02-.51-.04-1.02-.05-1.53s-.02-1.02-.03-1.53c-.02-1.46-.01-2.91,.02-4.37,.04-1.77,.12-3.57,.24-5.37,.07-.98,.14-1.95,.22-2.93,.04-.53,.09-1.06,.14-1.59,.11-1.06,.22-2.12,.34-3.18,.24-2.11,.52-4.22,.86-6.34,.31-2.09,.67-4.2,1.07-6.3,.61-3.25,1.29-6.48,2.04-9.69,.14-.62,.29-1.24,.44-1.86,.14-.58,.28-1.16,.43-1.74,.71-2.85,1.47-5.68,2.27-8.5,.29-1.02,.59-2.05,.89-3.07,.61-2.04,1.23-4.08,1.88-6.11,.32-1.01,.64-2.02,.97-3.02t.01-.02c2.2-6.71,4.56-13.17,6.93-19.24l.06-.15c1.53-3.92,3.01-7.76,4.45-11.54,7.99-21.98,15.94-44.71,23.48-67.7,.04-.1,.07-.21,.1-.31,5.48-17.28,10.68-34.68,16.38-53.72,2.3-7.71,4.41-15,6.34-21.92,8.38-31.12,15.25-61.77,19.71-90.75,.41-2.92,.78-5.72,1.13-8.43,1.87-14.48,3.27-29.17,4.16-43.67,1.08-.33,2.15-.61,3.23-.86,.34-.08,.67-.15,1.01-.22,.92-.19,1.84-.35,2.75-.48,.42-.06,.85-.11,1.27-.16,.67-.07,1.34-.13,2.01-.18,.33-.02,.66-.04,1-.05,.79-.03,1.58-.04,2.36-.02,.29,0,.58,.02,.87,.03-3.99,91.48-44.17,213.7-81.8,313.23-4.57,13.56-7.66,23.29-9.93,37.44,19.64-.5,23.53,6.5,23.53,6.5-.01,.03-.01,.07-.02,.1-2.92,16.6-3.95,30.44-1.02,39.54,.1,.3,.2,.59,.31,.88,.22,.57,.45,1.12,.7,1.65,.37,.79,1.43,2.75,2.93,4.51,1.24,1.33,2.71,2.39,4.43,3.16l6.34,1.18c-11.17,5.89-21.04,9.22-31.57,7.4,8.3,16.14,27,29.11,53.92,25.66Z"/>
          <path id="C_Rope" data-name="C Rope" class="cls-7" d="M1210.68,61.44l-54.03,258.37c-13.6,81.46-21.41,159.6-23.21,232.25l-.06,2.66c-.32,13.32-.74,30.7-2.94,48.38-8.98-5.87-19.22-10.08-30.33-12.15l-6.45-1.2c1.22-13.31,1.54-26.22,1.77-35.94l.07-2.69c.85-34.08,2.98-69.33,6.38-105.5,.06-.61-.81-.78-.99-.2-10.85,35.77-21.25,68.05-37.18,108.81l-.06,.15,.06-.15-.06,.15c-14.98,38.3-20.07,71.02-13.29,85.38,.68,1.44,3.63,6.75,7.36,7.67l30.82,5.74c8.62,1.6,15.04,8.58,16.11,17.08-4.25,4.19-9.13,7.62-14.76,10.04-9.69,4.16-18.59,5.59-26.24,5.59-15.35,0-25.69-5.75-27.3-6.7-13.01-7.71-18.51-19.37-20.32-23.2-2.51-5.32-4.2-11.13-5.23-17.28l5.23,17.28c-14.86-31.48-1.53-80.14,12.26-115.42l.06-.15-.06,.15,.06-.15c19.31-49.41,30.39-86.42,44.41-133.27,17.91-59.87,23.79-94.81,27.18-121.1,1.87-14.48,3.27-29.17,4.16-43.66,0,0,0,0,0,0h0c10.14-3.09,20.27-2.62,29.54,1.75l.33,.08,38.77-186.8,2.35-.47c11.79-2.37,24.04-.91,34.94,4.19l.67,.32Z"/>
          <g id="Junction_Ropes" data-name="Junction Ropes">
            <g>
              <path id="Rope_3" data-name="Rope 3" d="M1147.63,379.61c.07-.83-.66-1.92-1.87-3.63-.82-1.16-1.8-2.19-2.9-3.06-1.16-.92-2.47-1.67-3.87-2.22l-.76-.3c-4.68-1.84-4.77-1.87-16.57-3.5-7.99-1.1-10.69-1.45-14.2-1.49h-1.28c-2.67,0-5.91,.11-9.78,.99-4.88,1.11-9.55,3.18-13.88,6.15-.77,1.15-1.05,2.21-.84,3.13l-2.99,10.91-1.55-.81c-2.77-1.96-4.56-4.58-5.31-7.79-.86-3.66-.05-7.6,2.28-11.08l1.08-1.61,1.6-1.1c5.39-3.7,11.23-6.28,17.36-7.67,4.84-1.1,8.8-1.25,12.02-1.25h1.37c4.13,.05,7.01,.42,15.49,1.59,12.08,1.66,13.14,1.84,18.89,4.1l.76,.3c2.34,.92,4.52,2.17,6.47,3.72,1.85,1.46,3.48,3.19,4.86,5.13,1.84,2.59,4.12,5.8,3.71,10.39-.29,3.28-2.09,7.81-9.02,10.79l-2.74,1.05,1.67-12.74Z"/>
              <path id="Rope_2" data-name="Rope 2" d="M1150.09,380.8l-3.99-9.31c.85-.37,2.85-1.33,2.95-2.39,.07-.83-.66-1.92-1.87-3.63-.82-1.16-1.8-2.19-2.9-3.06-1.16-.92-2.47-1.67-3.87-2.22l-.76-.3c-4.68-1.84-4.77-1.87-16.57-3.5-7.99-1.1-10.69-1.45-14.2-1.49h-1.28c-2.67,0-5.91,.11-9.78,.99-4.88,1.11-9.55,3.18-13.88,6.15-.77,1.15-1.05,2.21-.84,3.13,.15,.66,.45,1.43,1.99,2.26l-4.8,8.91c-3.77-2.03-6.14-5.01-7.04-8.85-.86-3.66-.05-7.6,2.28-11.09l1.08-1.61,1.6-1.1c5.39-3.7,11.23-6.28,17.36-7.67,4.84-1.1,8.8-1.25,12.02-1.25h1.37c4.13,.05,7.01,.42,15.49,1.59,12.08,1.66,13.14,1.84,18.89,4.1l.76,.3c2.34,.92,4.52,2.17,6.47,3.72,1.85,1.46,3.48,3.19,4.86,5.13,1.84,2.59,4.12,5.8,3.71,10.39-.29,3.28-2.09,7.82-9.04,10.8Z"/>
              <path id="Rope_1" data-name="Rope 1" d="M1151.51,370.28l-3.88-9.35c.9-.38,3.01-1.37,3.11-2.47,.07-.83-.66-1.92-1.87-3.63-.82-1.16-1.8-2.19-2.9-3.06-1.16-.92-2.47-1.67-3.87-2.22l-.76-.3c-4.68-1.84-4.77-1.87-16.57-3.5-7.99-1.1-10.69-1.45-14.2-1.49h-1.28c-2.67,0-5.91,.11-9.78,.99-4.88,1.11-9.55,3.18-13.88,6.15-.77,1.15-1.05,2.21-.84,3.13,.18,.75,.54,1.63,2.61,2.56l-4.16,9.23c-4.51-2.03-7.3-5.22-8.3-9.48-.86-3.66-.05-7.6,2.28-11.09l1.08-1.61,1.6-1.1c5.39-3.7,11.23-6.28,17.36-7.67,4.84-1.1,8.8-1.25,12.02-1.25h1.37c4.13,.05,7.01,.42,15.49,1.59,12.08,1.66,13.14,1.84,18.89,4.1l.76,.3c2.34,.92,4.52,2.17,6.47,3.72,1.85,1.46,3.48,3.19,4.86,5.13,1.84,2.59,4.12,5.8,3.71,10.39-.3,3.34-2.15,7.94-9.31,10.92Z"/>
              <path id="Rope_3-2" data-name="Rope 3" d="M1152.25,347.66c.07-.83-.66-1.92-1.87-3.63-.82-1.16-1.8-2.19-2.9-3.06-1.16-.92-2.47-1.67-3.87-2.22l-.76-.3c-4.68-1.84-4.77-1.87-16.57-3.5-7.99-1.1-10.69-1.45-14.2-1.49h-1.28c-2.67,0-5.91,.11-9.78,.99-4.88,1.11-9.55,3.18-13.88,6.15-.77,1.15-1.05,2.21-.84,3.13l-2.99,10.91-1.55-.81c-2.77-1.96-4.56-4.58-5.31-7.79-.86-3.66-.05-7.6,2.28-11.08l1.08-1.61,1.6-1.1c5.39-3.7,11.23-6.28,17.36-7.67,4.84-1.1,8.8-1.25,12.02-1.25h1.37c4.13,.05,7.01,.42,15.49,1.59,12.08,1.66,13.14,1.84,18.89,4.1l.76,.3c2.34,.92,4.52,2.17,6.47,3.72,1.85,1.46,3.48,3.19,4.86,5.13,1.84,2.59,4.12,5.8,3.71,10.39-.29,3.28-2.09,7.81-9.02,10.79l-2.74,1.05,1.67-12.74Z"/>
              <path id="Rope_2-2" data-name="Rope 2" d="M1154.71,348.85l-3.99-9.31c.85-.37,2.85-1.33,2.95-2.39,.07-.83-.66-1.92-1.87-3.63-.82-1.16-1.8-2.19-2.9-3.06-1.16-.92-2.47-1.67-3.87-2.22l-.76-.3c-4.68-1.84-4.77-1.87-16.57-3.5-7.99-1.1-10.69-1.45-14.2-1.49h-1.28c-2.67,0-5.91,.11-9.78,.99-4.88,1.11-9.55,3.18-13.88,6.15-.77,1.15-1.05,2.21-.84,3.13,.15,.66,.45,1.43,1.99,2.26l-4.8,8.91c-3.77-2.03-6.14-5.01-7.04-8.85-.86-3.66-.05-7.6,2.28-11.09l1.08-1.61,1.6-1.1c5.39-3.7,11.23-6.28,17.36-7.67,4.84-1.1,8.8-1.25,12.02-1.25h1.37c4.13,.05,7.01,.42,15.49,1.59,12.08,1.66,13.14,1.84,18.89,4.1l.76,.3c2.34,.92,4.52,2.17,6.47,3.72,1.85,1.46,3.48,3.19,4.86,5.13,1.84,2.59,4.12,5.8,3.71,10.39-.29,3.28-2.09,7.82-9.04,10.8Z"/>
              <path id="Rope_1-2" data-name="Rope 1" d="M1156.13,338.33l-3.88-9.35c.9-.38,3.01-1.37,3.11-2.47,.07-.83-.66-1.92-1.87-3.63-.82-1.16-1.8-2.19-2.9-3.06-1.16-.92-2.47-1.67-3.87-2.22l-.76-.3c-4.68-1.84-4.77-1.87-16.57-3.5-7.99-1.1-10.69-1.45-14.2-1.49h-1.28c-2.67,0-5.91,.11-9.78,.99-4.88,1.11-9.55,3.18-13.88,6.15-.77,1.15-1.05,2.21-.84,3.13,.18,.75,.54,1.63,2.61,2.56l-4.16,9.23c-4.51-2.03-7.3-5.22-8.3-9.48-.86-3.66-.05-7.6,2.28-11.09l1.08-1.61,1.6-1.1c5.39-3.7,11.23-6.28,17.36-7.67,4.84-1.1,8.8-1.25,12.02-1.25h1.37c4.13,.05,7.01,.42,15.49,1.59,12.08,1.66,13.14,1.84,18.89,4.1l.76,.3c2.34,.92,4.52,2.17,6.47,3.72,1.85,1.46,3.48,3.19,4.86,5.13,1.84,2.59,4.12,5.8,3.71,10.39-.3,3.34-2.15,7.94-9.31,10.92Z"/>
              <path id="S_Ropes" data-name="S Ropes" d="M1104.13,313.32c-.1,.03-.19,.05-.29,.08,2.13-.32,4.05-.46,5.8-.52-.73,.39-7.53,4.38-1.06,10.19-1.65,.11-3.46,.33-5.43,.75,2.09-.29,3.99-.41,5.7-.44-.43,.23-7.71,4.25-1.14,10.18-1.97,.1-4.2,.35-6.68,.92-.82,.19-1.63,.39-2.43,.65,2.85-.57,5.37-.81,7.59-.91-.92,.52-7.39,4.48-.96,10.2-1.72,.13-3.63,.38-5.71,.86-.1,.03-.19,.05-.29,.08,2.13-.32,4.05-.46,5.8-.52-.73,.39-7.53,4.38-1.06,10.19-1.65,.11-3.46,.33-5.43,.75,2.09-.29,3.99-.41,5.7-.44-.43,.23-7.71,4.25-1.14,10.18-1.97,.1-4.2,.35-6.68,.92-4.89,1.1-9.56,3.18-13.88,6.14-.77,1.16-1.05,2.21-.84,3.14l-2.99,10.91-1.56-.81c-2.77-1.96-4.56-4.58-5.32-7.78-.77-3.27-.2-6.75,1.58-9.92-.05-.19-.1-.38-.15-.58-.81-3.39-.18-7.01,1.78-10.29-.04-.11-.08-.24-.1-.35-.78-3.33-.19-6.87,1.7-10.13-.08-.22-.14-.44-.19-.67-.77-3.27-.2-6.75,1.58-9.92-.05-.19-.1-.38-.15-.58-.81-3.39-.18-7.01,1.78-10.29-.04-.11-.08-.24-.1-.35-.86-3.66-.05-7.59,2.29-11.09l1.08-1.61,1.59-1.1c5.39-3.7,11.24-6.28,17.36-7.67,3.39-.77,6.35-1.08,8.92-1.19-.92,.52-7.39,4.48-.96,10.2-1.72,.13-3.63,.38-5.71,.86Z"/>
              <path id="C_Junction_Ropes" data-name="C Junction Ropes" d="M1161.74,317.03c-1.38-1.94-3.01-3.66-4.86-5.13-1.95-1.55-4.13-2.8-6.47-3.72l-.76-.3c-5.75-2.26-6.8-2.44-18.89-4.1-8.48-1.17-11.36-1.54-15.49-1.58h-1.37c-3.23,0-7.18,.14-12.02,1.24-6.13,1.39-11.98,3.98-17.36,7.67l-1.6,1.1-1.08,1.61c-2.34,3.48-3.15,7.42-2.28,11.09,.03,.12,.07,.23,.1,.35-1.95,3.28-2.6,6.9-1.8,10.29,.05,.2,.11,.38,.17,.57-1.79,3.19-2.36,6.67-1.59,9.94,.05,.23,.13,.45,.19,.67-1.87,3.24-2.49,6.79-1.7,10.13,.03,.12,.07,.23,.1,.35-1.95,3.28-2.6,6.9-1.8,10.29,.05,.2,.11,.38,.17,.57-1.79,3.19-2.36,6.67-1.59,9.94,.75,3.21,2.54,5.83,5.31,7.79l1.55,.81,2.99-10.91c-.22-.92,.06-1.98,.84-3.13,4.33-2.97,9-5.04,13.88-6.15,3.86-.88,7.11-1,9.78-1h1.28c3.51,.04,6.2,.39,14.2,1.49,11.8,1.63,11.89,1.66,16.57,3.5l.76,.3c1.4,.55,2.7,1.3,3.87,2.22,1.1,.87,2.08,1.9,2.9,3.06,1.21,1.71,1.95,2.79,1.88,3.63l-1.67,12.74,2.74-1.05c6.93-2.98,8.73-7.52,9.02-10.79,.17-1.87-.12-3.5-.63-4.96,1.37-1.93,1.9-3.9,2.05-5.55,.16-1.8-.1-3.38-.57-4.81,1.53-2.02,2.11-4.1,2.27-5.83,.17-1.91-.13-3.59-.67-5.08,1.47-1.98,2.03-4.02,2.18-5.72,.17-1.87-.12-3.5-.63-4.96,1.37-1.93,1.9-3.9,2.05-5.55,.16-1.8-.1-3.38-.57-4.81,1.53-2.02,2.11-4.1,2.27-5.83,.41-4.59-1.87-7.8-3.71-10.39Z"/>
            </g>
            <g>
              <path id="Rope_3-3" data-name="Rope 3" class="cls-9" d="M1147.63,379.61c.07-.83-.66-1.92-1.87-3.63-.82-1.16-1.8-2.19-2.9-3.06-1.16-.92-2.47-1.67-3.87-2.22l-.76-.3c-4.68-1.84-4.77-1.87-16.57-3.5-7.99-1.1-10.69-1.45-14.2-1.49h-1.28c-2.67,0-5.91,.11-9.78,.99-4.88,1.11-9.55,3.18-13.88,6.15-.77,1.15-1.05,2.21-.84,3.13l-2.99,10.91-1.55-.81c-2.77-1.96-4.56-4.58-5.31-7.79-.86-3.66-.05-7.6,2.28-11.08l1.08-1.61,1.6-1.1c5.39-3.7,11.23-6.28,17.36-7.67,4.84-1.1,8.8-1.25,12.02-1.25h1.37c4.13,.05,7.01,.42,15.49,1.59,12.08,1.66,13.14,1.84,18.89,4.1l.76,.3c2.34,.92,4.52,2.17,6.47,3.72,1.85,1.46,3.48,3.19,4.86,5.13,1.84,2.59,4.12,5.8,3.71,10.39-.29,3.28-2.09,7.81-9.02,10.79l-2.74,1.05,1.67-12.74Z"/>
              <path id="Rope_2-3" data-name="Rope 2" class="cls-9" d="M1150.09,380.8l-3.99-9.31c.85-.37,2.85-1.33,2.95-2.39,.07-.83-.66-1.92-1.87-3.63-.82-1.16-1.8-2.19-2.9-3.06-1.16-.92-2.47-1.67-3.87-2.22l-.76-.3c-4.68-1.84-4.77-1.87-16.57-3.5-7.99-1.1-10.69-1.45-14.2-1.49h-1.28c-2.67,0-5.91,.11-9.78,.99-4.88,1.11-9.55,3.18-13.88,6.15-.77,1.15-1.05,2.21-.84,3.13,.15,.66,.45,1.43,1.99,2.26l-4.8,8.91c-3.77-2.03-6.14-5.01-7.04-8.85-.86-3.66-.05-7.6,2.28-11.09l1.08-1.61,1.6-1.1c5.39-3.7,11.23-6.28,17.36-7.67,4.84-1.1,8.8-1.25,12.02-1.25h1.37c4.13,.05,7.01,.42,15.49,1.59,12.08,1.66,13.14,1.84,18.89,4.1l.76,.3c2.34,.92,4.52,2.17,6.47,3.72,1.85,1.46,3.48,3.19,4.86,5.13,1.84,2.59,4.12,5.8,3.71,10.39-.29,3.28-2.09,7.82-9.04,10.8Z"/>
              <path id="Rope_1-3" data-name="Rope 1" class="cls-9" d="M1151.51,370.28l-3.88-9.35c.9-.38,3.01-1.37,3.11-2.47,.07-.83-.66-1.92-1.87-3.63-.82-1.16-1.8-2.19-2.9-3.06-1.16-.92-2.47-1.67-3.87-2.22l-.76-.3c-4.68-1.84-4.77-1.87-16.57-3.5-7.99-1.1-10.69-1.45-14.2-1.49h-1.28c-2.67,0-5.91,.11-9.78,.99-4.88,1.11-9.55,3.18-13.88,6.15-.77,1.15-1.05,2.21-.84,3.13,.18,.75,.54,1.63,2.61,2.56l-4.16,9.23c-4.51-2.03-7.3-5.22-8.3-9.48-.86-3.66-.05-7.6,2.28-11.09l1.08-1.61,1.6-1.1c5.39-3.7,11.23-6.28,17.36-7.67,4.84-1.1,8.8-1.25,12.02-1.25h1.37c4.13,.05,7.01,.42,15.49,1.59,12.08,1.66,13.14,1.84,18.89,4.1l.76,.3c2.34,.92,4.52,2.17,6.47,3.72,1.85,1.46,3.48,3.19,4.86,5.13,1.84,2.59,4.12,5.8,3.71,10.39-.3,3.34-2.15,7.94-9.31,10.92Z"/>
              <path id="Rope_3-4" data-name="Rope 3" class="cls-9" d="M1152.25,347.66c.07-.83-.66-1.92-1.87-3.63-.82-1.16-1.8-2.19-2.9-3.06-1.16-.92-2.47-1.67-3.87-2.22l-.76-.3c-4.68-1.84-4.77-1.87-16.57-3.5-7.99-1.1-10.69-1.45-14.2-1.49h-1.28c-2.67,0-5.91,.11-9.78,.99-4.88,1.11-9.55,3.18-13.88,6.15-.77,1.15-1.05,2.21-.84,3.13l-2.99,10.91-1.55-.81c-2.77-1.96-4.56-4.58-5.31-7.79-.86-3.66-.05-7.6,2.28-11.08l1.08-1.61,1.6-1.1c5.39-3.7,11.23-6.28,17.36-7.67,4.84-1.1,8.8-1.25,12.02-1.25h1.37c4.13,.05,7.01,.42,15.49,1.59,12.08,1.66,13.14,1.84,18.89,4.1l.76,.3c2.34,.92,4.52,2.17,6.47,3.72,1.85,1.46,3.48,3.19,4.86,5.13,1.84,2.59,4.12,5.8,3.71,10.39-.29,3.28-2.09,7.81-9.02,10.79l-2.74,1.05,1.67-12.74Z"/>
              <path id="Rope_2-4" data-name="Rope 2" class="cls-9" d="M1154.71,348.85l-3.99-9.31c.85-.37,2.85-1.33,2.95-2.39,.07-.83-.66-1.92-1.87-3.63-.82-1.16-1.8-2.19-2.9-3.06-1.16-.92-2.47-1.67-3.87-2.22l-.76-.3c-4.68-1.84-4.77-1.87-16.57-3.5-7.99-1.1-10.69-1.45-14.2-1.49h-1.28c-2.67,0-5.91,.11-9.78,.99-4.88,1.11-9.55,3.18-13.88,6.15-.77,1.15-1.05,2.21-.84,3.13,.15,.66,.45,1.43,1.99,2.26l-4.8,8.91c-3.77-2.03-6.14-5.01-7.04-8.85-.86-3.66-.05-7.6,2.28-11.09l1.08-1.61,1.6-1.1c5.39-3.7,11.23-6.28,17.36-7.67,4.84-1.1,8.8-1.25,12.02-1.25h1.37c4.13,.05,7.01,.42,15.49,1.59,12.08,1.66,13.14,1.84,18.89,4.1l.76,.3c2.34,.92,4.52,2.17,6.47,3.72,1.85,1.46,3.48,3.19,4.86,5.13,1.84,2.59,4.12,5.8,3.71,10.39-.29,3.28-2.09,7.82-9.04,10.8Z"/>
              <path id="Rope_1-4" data-name="Rope 1" class="cls-9" d="M1156.13,338.33l-3.88-9.35c.9-.38,3.01-1.37,3.11-2.47,.07-.83-.66-1.92-1.87-3.63-.82-1.16-1.8-2.19-2.9-3.06-1.16-.92-2.47-1.67-3.87-2.22l-.76-.3c-4.68-1.84-4.77-1.87-16.57-3.5-7.99-1.1-10.69-1.45-14.2-1.49h-1.28c-2.67,0-5.91,.11-9.78,.99-4.88,1.11-9.55,3.18-13.88,6.15-.77,1.15-1.05,2.21-.84,3.13,.18,.75,.54,1.63,2.61,2.56l-4.16,9.23c-4.51-2.03-7.3-5.22-8.3-9.48-.86-3.66-.05-7.6,2.28-11.09l1.08-1.61,1.6-1.1c5.39-3.7,11.23-6.28,17.36-7.67,4.84-1.1,8.8-1.25,12.02-1.25h1.37c4.13,.05,7.01,.42,15.49,1.59,12.08,1.66,13.14,1.84,18.89,4.1l.76,.3c2.34,.92,4.52,2.17,6.47,3.72,1.85,1.46,3.48,3.19,4.86,5.13,1.84,2.59,4.12,5.8,3.71,10.39-.3,3.34-2.15,7.94-9.31,10.92Z"/>
              <path id="S_Ropes-2" data-name="S Ropes" class="cls-1" d="M1104.13,313.32c-.1,.03-.19,.05-.29,.08,2.13-.32,4.05-.46,5.8-.52-.73,.39-7.53,4.38-1.06,10.19-1.65,.11-3.46,.33-5.43,.75,2.09-.29,3.99-.41,5.7-.44-.43,.23-7.71,4.25-1.14,10.18-1.97,.1-4.2,.35-6.68,.92-.82,.19-1.63,.39-2.43,.65,2.85-.57,5.37-.81,7.59-.91-.92,.52-7.39,4.48-.96,10.2-1.72,.13-3.63,.38-5.71,.86-.1,.03-.19,.05-.29,.08,2.13-.32,4.05-.46,5.8-.52-.73,.39-7.53,4.38-1.06,10.19-1.65,.11-3.46,.33-5.43,.75,2.09-.29,3.99-.41,5.7-.44-.43,.23-7.71,4.25-1.14,10.18-1.97,.1-4.2,.35-6.68,.92-4.89,1.1-9.56,3.18-13.88,6.14-.77,1.16-1.05,2.21-.84,3.14l-2.99,10.91-1.56-.81c-2.77-1.96-4.56-4.58-5.32-7.78-.77-3.27-.2-6.75,1.58-9.92-.05-.19-.1-.38-.15-.58-.81-3.39-.18-7.01,1.78-10.29-.04-.11-.08-.24-.1-.35-.78-3.33-.19-6.87,1.7-10.13-.08-.22-.14-.44-.19-.67-.77-3.27-.2-6.75,1.58-9.92-.05-.19-.1-.38-.15-.58-.81-3.39-.18-7.01,1.78-10.29-.04-.11-.08-.24-.1-.35-.86-3.66-.05-7.59,2.29-11.09l1.08-1.61,1.59-1.1c5.39-3.7,11.24-6.28,17.36-7.67,3.39-.77,6.35-1.08,8.92-1.19-.92,.52-7.39,4.48-.96,10.2-1.72,.13-3.63,.38-5.71,.86Z"/>
              <path id="C_Junction_Ropes-2" data-name="C Junction Ropes" class="cls-7" d="M1161.74,317.03c-1.38-1.94-3.01-3.66-4.86-5.13-1.95-1.55-4.13-2.8-6.47-3.72l-.76-.3c-5.75-2.26-6.8-2.44-18.89-4.1-8.48-1.17-11.36-1.54-15.49-1.58h-1.37c-3.23,0-7.18,.14-12.02,1.24-6.13,1.39-11.98,3.98-17.36,7.67l-1.6,1.1-1.08,1.61c-2.34,3.48-3.15,7.42-2.28,11.09,.03,.12,.07,.23,.1,.35-1.95,3.28-2.6,6.9-1.8,10.29,.05,.2,.11,.38,.17,.57-1.79,3.19-2.36,6.67-1.59,9.94,.05,.23,.13,.45,.19,.67-1.87,3.24-2.49,6.79-1.7,10.13,.03,.12,.07,.23,.1,.35-1.95,3.28-2.6,6.9-1.8,10.29,.05,.2,.11,.38,.17,.57-1.79,3.19-2.36,6.67-1.59,9.94,.75,3.21,2.54,5.83,5.31,7.79l1.55,.81,2.99-10.91c-.22-.92,.06-1.98,.84-3.13,4.33-2.97,9-5.04,13.88-6.15,3.86-.88,7.11-1,9.78-1h1.28c3.51,.04,6.2,.39,14.2,1.49,11.8,1.63,11.89,1.66,16.57,3.5l.76,.3c1.4,.55,2.7,1.3,3.87,2.22,1.1,.87,2.08,1.9,2.9,3.06,1.21,1.71,1.95,2.79,1.88,3.63l-1.67,12.74,2.74-1.05c6.93-2.98,8.73-7.52,9.02-10.79,.17-1.87-.12-3.5-.63-4.96,1.37-1.93,1.9-3.9,2.05-5.55,.16-1.8-.1-3.38-.57-4.81,1.53-2.02,2.11-4.1,2.27-5.83,.17-1.91-.13-3.59-.67-5.08,1.47-1.98,2.03-4.02,2.18-5.72,.17-1.87-.12-3.5-.63-4.96,1.37-1.93,1.9-3.9,2.05-5.55,.16-1.8-.1-3.38-.57-4.81,1.53-2.02,2.11-4.1,2.27-5.83,.41-4.59-1.87-7.8-3.71-10.39Z"/>
            </g>
          </g>
        </g>
      </g>
    </g>
  </g>
</svg>